<svg width="17" height="17" viewBox="0 0 17 17" fill="none" xmlns="http://www.w3.org/2000/svg">
<path fill-rule="evenodd" clip-rule="evenodd" d="M2 0.257568C0.895431 0.257568 0 1.153 0 2.25757V14.7424C0 15.847 0.895431 16.7424 2 16.7424H14.7888C15.8934 16.7424 16.7888 15.847 16.7888 14.7424V2.25757C16.7888 1.153 15.8934 0.257568 14.7888 0.257568H2ZM12.3551 5.3913L10.1745 12.3167C10.0613 12.6763 9.53543 12.7038 9.3617 12.3694C8.89695 11.4746 8.20013 10.3813 7.40884 9.77023C6.63966 9.17623 5.33156 8.66974 4.24276 8.32967C3.85826 8.20958 3.83653 7.63324 4.21765 7.50281L11.844 4.89272C12.1544 4.78651 12.4536 5.07843 12.3551 5.3913Z" fill="white"/>
</svg>
