<svg width="18" height="17" viewBox="0 0 18 17" fill="none" xmlns="http://www.w3.org/2000/svg">
<path d="M16.2888 0.257568H1.92169C1.25295 0.257568 0.710876 0.789824 0.710876 1.44647V15.5535C0.710876 16.2102 1.25295 16.7424 1.92169 16.7424H9.6791V10.3674H7.49853V7.87215H9.6791V6.03579C9.6791 3.90626 11.0031 2.74717 12.9378 2.74717C13.8644 2.74717 14.6607 2.81496 14.8928 2.84527V5.07102H13.5588C12.5061 5.07102 12.3023 5.56214 12.3023 6.28293V7.87215H14.819L14.4911 10.3674H12.3023V16.7424H16.2888C16.9576 16.7424 17.4997 16.2102 17.4997 15.5535V1.44647C17.4997 0.789824 16.9576 0.257568 16.2888 0.257568V0.257568Z" fill="#4A519A"/>
</svg>
