<svg width="18" height="17" viewBox="0 0 18 17" fill="none" xmlns="http://www.w3.org/2000/svg">
<path d="M15.8181 0.257568H1.45099C0.782243 0.257568 0.240173 0.789824 0.240173 1.44647V15.5535C0.240173 16.2102 0.782243 16.7424 1.45099 16.7424H9.2084V10.3674H7.02782V7.87215H9.2084V6.03579C9.2084 3.90626 10.5324 2.74717 12.4671 2.74717C13.3937 2.74717 14.19 2.81496 14.4221 2.84527V5.07102H13.0881C12.0354 5.07102 11.8316 5.56214 11.8316 6.28293V7.87215H14.3483L14.0204 10.3674H11.8316V16.7424H15.8181C16.4869 16.7424 17.029 16.2102 17.029 15.5535V1.44647C17.029 0.789824 16.4869 0.257568 15.8181 0.257568V0.257568Z" fill="white"/>
</svg>
