<svg width="18" height="15" viewBox="0 0 18 15" fill="none" xmlns="http://www.w3.org/2000/svg">
<path fill-rule="evenodd" clip-rule="evenodd" d="M15.1771 0.851267C16.2412 0.917657 16.7639 1.09224 17.2455 2.04136C17.7471 2.98926 18.0001 4.62195 18.0001 7.4976V7.50129V7.50744C18.0001 10.3696 17.7471 12.0146 17.2466 12.9526C16.765 13.9017 16.2423 14.0739 15.1782 14.1538C14.114 14.2214 11.4407 14.262 9.12482 14.262C6.80447 14.262 4.13013 14.2214 3.06705 14.1525C2.00508 14.0726 1.48242 13.9005 0.996374 12.9514C0.500345 12.0133 0.245117 10.3683 0.245117 7.50621V7.50375V7.50006V7.49638C0.245117 4.62195 0.500345 2.98926 0.996374 2.04136C1.48242 1.09101 2.00619 0.917657 3.06816 0.850038C4.13013 0.771354 6.80447 0.738159 9.12482 0.738159C11.4407 0.738159 14.114 0.771354 15.1771 0.851267ZM12.9198 7.48398L6.95593 4.1031V10.8649L12.9198 7.48398Z" fill="white"/>
</svg>
