<svg width="19" height="15" viewBox="0 0 19 15" fill="none" xmlns="http://www.w3.org/2000/svg">
<path fill-rule="evenodd" clip-rule="evenodd" d="M15.6478 0.851267C16.7119 0.917657 17.2346 1.09224 17.7162 2.04136C18.2178 2.98926 18.4708 4.62195 18.4708 7.4976V7.50129V7.50744C18.4708 10.3696 18.2178 12.0146 17.7173 12.9526C17.2357 13.9017 16.7131 14.0739 15.6489 14.1538C14.5847 14.2214 11.9114 14.262 9.59553 14.262C7.27517 14.262 4.60083 14.2214 3.53775 14.1525C2.47578 14.0726 1.95312 13.9005 1.46708 12.9514C0.971048 12.0133 0.71582 10.3683 0.71582 7.50621V7.50375V7.50006V7.49638C0.71582 4.62195 0.971048 2.98926 1.46708 2.04136C1.95312 1.09101 2.47689 0.917657 3.53886 0.850038C4.60083 0.771354 7.27517 0.738159 9.59553 0.738159C11.9114 0.738159 14.5847 0.771354 15.6478 0.851267ZM13.3905 7.48398L7.42663 4.1031V10.8649L13.3905 7.48398Z" fill="#4A519A"/>
</svg>
