<svg width="18" height="17" viewBox="0 0 18 17" fill="none" xmlns="http://www.w3.org/2000/svg">
<path fill-rule="evenodd" clip-rule="evenodd" d="M2.4707 0.257568C1.36613 0.257568 0.470703 1.153 0.470703 2.25757V14.7424C0.470703 15.847 1.36613 16.7424 2.4707 16.7424H15.2595C16.3641 16.7424 17.2595 15.847 17.2595 14.7424V2.25757C17.2595 1.153 16.3641 0.257568 15.2595 0.257568H2.4707ZM12.8258 5.3913L10.6452 12.3167C10.5321 12.6763 10.0061 12.7038 9.83241 12.3694C9.36765 11.4746 8.67084 10.3813 7.87954 9.77023C7.11036 9.17623 5.80226 8.66974 4.71347 8.32967C4.32896 8.20958 4.30724 7.63324 4.68836 7.50281L12.3147 4.89272C12.6251 4.78651 12.9243 5.07843 12.8258 5.3913Z" fill="#4A519A"/>
</svg>
