<svg width="19" height="17" viewBox="0 0 19 17" fill="none" xmlns="http://www.w3.org/2000/svg">
<path fill-rule="evenodd" clip-rule="evenodd" d="M13.1774 0.0533979C11.5846 -0.0195591 7.63925 -0.0160175 6.04497 0.0533979C4.64403 0.117855 3.40828 0.450057 2.41204 1.42825C0.922135 2.89115 0.935878 4.80894 0.955242 7.51102C0.957517 7.82853 0.95987 8.15688 0.95987 8.49658C0.95987 8.81453 0.958136 9.1218 0.956459 9.41894C0.940695 12.2119 0.929983 14.1097 2.41204 15.5649C3.90467 17.0299 5.87938 17.0155 8.60024 16.9956H8.60026C8.92625 16.9932 9.26295 16.9908 9.61082 16.9908H9.6578C12.9574 16.9908 14.1034 16.9908 15.2774 16.5445C16.881 15.9332 18.0915 14.5258 18.2098 11.9978C18.2849 10.4331 18.2805 6.56003 18.2098 4.99465C18.067 2.01049 16.4359 0.200729 13.1774 0.0533979ZM9.61003 4.00293C7.08074 4.00293 5.03308 6.01571 5.03308 8.49703C5.03308 10.9805 7.08297 12.9911 9.61003 12.9911C12.1393 12.9911 14.187 10.9783 14.187 8.49703C14.187 6.01352 12.1371 4.00293 9.61003 4.00293ZM9.61003 11.414C7.96819 11.414 6.63925 10.1084 6.63925 8.49703C6.63925 6.88563 7.96893 5.58002 9.61003 5.58002C11.2511 5.58002 12.5808 6.88563 12.5808 8.49703C12.5816 10.1084 11.2519 11.414 9.61003 11.414ZM15.9612 3.56824C15.9612 4.14824 15.4824 4.61842 14.8917 4.61842C14.301 4.61842 13.8221 4.14824 13.8221 3.56824C13.8221 2.98825 14.301 2.51807 14.8917 2.51807C15.4824 2.51807 15.9612 2.98825 15.9612 3.56824Z" fill="#4A519A"/>
</svg>
