<svg width="18" height="30" viewBox="0 0 18 30" fill="none" xmlns="http://www.w3.org/2000/svg">
<path fill-rule="evenodd" clip-rule="evenodd" d="M12.7067 0.0533979C11.1139 -0.0195591 7.16856 -0.0160175 5.57429 0.0533979C4.17334 0.117855 2.93759 0.450057 1.94135 1.42825C0.451447 2.89115 0.46519 4.80894 0.484554 7.51102C0.48683 7.82853 0.489183 8.15688 0.489183 8.49658C0.489183 8.81453 0.487448 9.1218 0.485771 9.41894C0.470007 12.2119 0.459295 14.1097 1.94135 15.5649C3.43398 17.0299 5.40869 17.0155 8.12955 16.9956H8.12957C8.45556 16.9932 8.79227 16.9908 9.14013 16.9908H9.18711C12.4867 16.9908 13.6328 16.9908 14.8067 16.5445C16.4103 15.9332 17.6208 14.5258 17.7391 11.9978C17.8142 10.4331 17.8098 6.56003 17.7391 4.99465C17.5963 2.01049 15.9652 0.200729 12.7067 0.0533979ZM9.13935 4.00293C6.61006 4.00293 4.56239 6.01571 4.56239 8.49703C4.56239 10.9805 6.61229 12.9911 9.13935 12.9911C11.6686 12.9911 13.7163 10.9783 13.7163 8.49703C13.7163 6.01352 11.6664 4.00293 9.13935 4.00293ZM9.13935 11.414C7.4975 11.414 6.16856 10.1084 6.16856 8.49703C6.16856 6.88563 7.49824 5.58002 9.13935 5.58002C10.7804 5.58002 12.1101 6.88563 12.1101 8.49703C12.1109 10.1084 10.7812 11.414 9.13935 11.414ZM15.4905 3.56824C15.4905 4.14824 15.0117 4.61842 14.421 4.61842C13.8303 4.61842 13.3515 4.14824 13.3515 3.56824C13.3515 2.98825 13.8303 2.51807 14.421 2.51807C15.0117 2.51807 15.4905 2.98825 15.4905 3.56824Z" fill="white"/>
</svg>
