<svg width="180" height="52" viewBox="0 0 180 52" fill="none" xmlns="http://www.w3.org/2000/svg">
<path d="M20 0L10 10V20L20 10V0Z" fill="#EC5418"/>
<path d="M10 18L0 28H10L20 18H10Z" fill="#001DFF"/>
<path d="M20 10L10 20H20L30 10H20Z" fill="#001DFF"/>
<path d="M30 10L20 20V30L30 20V10Z" fill="#EC5418"/>
<path d="M40.368 7.2H46.032V19.608H53.616V24H40.368V7.2ZM68.9085 19.728V24H54.9405V7.2H68.5965V11.472H60.5085V13.44H67.6125V17.52H60.5085V19.728H68.9085ZM74.7369 11.592H69.8169V7.2H85.3209V11.592H80.4009V24H74.7369V11.592ZM91.6401 11.592H86.7201V7.2H102.224V11.592H97.3041V24H91.6401V11.592ZM117.543 19.728V24H103.575V7.2H117.231V11.472H109.143V13.44H116.247V17.52H109.143V19.728H117.543ZM126.564 19.776H125.028V24H119.364V7.2H127.452C129.004 7.2 130.356 7.456 131.508 7.968C132.66 8.48 133.548 9.216 134.172 10.176C134.796 11.136 135.108 12.256 135.108 13.536C135.108 14.736 134.836 15.784 134.292 16.68C133.748 17.576 132.964 18.288 131.94 18.816L135.468 24H129.42L126.564 19.776ZM129.396 13.536C129.396 12.912 129.204 12.432 128.82 12.096C128.436 11.744 127.86 11.568 127.092 11.568H125.028V15.504H127.092C127.86 15.504 128.436 15.336 128.82 15C129.204 14.648 129.396 14.16 129.396 13.536ZM145.694 24.384C143.886 24.384 142.262 24.008 140.822 23.256C139.382 22.504 138.254 21.464 137.438 20.136C136.622 18.792 136.214 17.28 136.214 15.6C136.214 13.92 136.622 12.416 137.438 11.088C138.254 9.744 139.382 8.696 140.822 7.944C142.262 7.192 143.886 6.816 145.694 6.816C147.502 6.816 149.126 7.192 150.566 7.944C152.006 8.696 153.134 9.744 153.95 11.088C154.766 12.416 155.174 13.92 155.174 15.6C155.174 17.28 154.766 18.792 153.95 20.136C153.134 21.464 152.006 22.504 150.566 23.256C149.126 24.008 147.502 24.384 145.694 24.384ZM145.694 19.8C146.398 19.8 147.03 19.632 147.59 19.296C148.166 18.944 148.622 18.456 148.958 17.832C149.294 17.192 149.462 16.448 149.462 15.6C149.462 14.752 149.294 14.016 148.958 13.392C148.622 12.752 148.166 12.264 147.59 11.928C147.03 11.576 146.398 11.4 145.694 11.4C144.99 11.4 144.35 11.576 143.774 11.928C143.214 12.264 142.766 12.752 142.43 13.392C142.094 14.016 141.926 14.752 141.926 15.6C141.926 16.448 142.094 17.192 142.43 17.832C142.766 18.456 143.214 18.944 143.774 19.296C144.35 19.632 144.99 19.8 145.694 19.8ZM163.134 24.384C161.742 24.384 160.382 24.232 159.054 23.928C157.742 23.608 156.662 23.184 155.814 22.656L157.638 18.528C158.438 18.992 159.334 19.368 160.326 19.656C161.318 19.928 162.27 20.064 163.182 20.064C163.966 20.064 164.526 19.992 164.862 19.848C165.198 19.688 165.366 19.456 165.366 19.152C165.366 18.8 165.142 18.536 164.694 18.36C164.262 18.184 163.542 17.992 162.534 17.784C161.238 17.512 160.158 17.224 159.294 16.92C158.43 16.6 157.678 16.088 157.038 15.384C156.398 14.664 156.078 13.696 156.078 12.48C156.078 11.424 156.374 10.464 156.966 9.6C157.558 8.736 158.438 8.056 159.606 7.56C160.79 7.064 162.222 6.816 163.902 6.816C165.054 6.816 166.182 6.944 167.286 7.2C168.406 7.44 169.39 7.8 170.238 8.28L168.534 12.384C166.886 11.552 165.326 11.136 163.854 11.136C162.398 11.136 161.67 11.488 161.67 12.192C161.67 12.528 161.886 12.784 162.318 12.96C162.75 13.12 163.462 13.296 164.454 13.488C165.734 13.728 166.814 14.008 167.694 14.328C168.574 14.632 169.334 15.136 169.974 15.84C170.63 16.544 170.958 17.504 170.958 18.72C170.958 19.776 170.662 20.736 170.07 21.6C169.478 22.448 168.59 23.128 167.406 23.64C166.238 24.136 164.814 24.384 163.134 24.384Z" fill="white"/>
</svg>
