<svg width="600" height="360" viewBox="0 0 600 360" fill="none" xmlns="http://www.w3.org/2000/svg">
<mask id="mask0" mask-type="alpha" maskUnits="userSpaceOnUse" x="0" y="0" width="600" height="360">
<rect width="600" height="360" fill="black"/>
</mask>
<g mask="url(#mask0)">
<path d="M564.682 234.143V269.873L557.629 268.184L557.086 268.054L547.889 265.847L547.168 265.673L530.024 261.566L529.346 261.402L517.716 258.612L516.913 258.425L515.971 258.199L515.206 258.016L503.024 255.096L502.423 254.947L500.591 254.514L499.884 254.346L482.062 250.07L481.332 249.896L478.586 249.237L477.913 249.079L475.202 248.429L474.284 248.203L432.144 238.107L430.116 203.907L453.486 209.16L504.389 220.598L504.966 220.723L508.048 221.421L508.827 221.594L516.254 223.263L517.206 223.475L521.456 224.427L522 224.552L525.245 225.283L526.105 225.476L529.048 226.135L529.812 226.308L540.403 228.689L541 228.819L552.596 231.426L553.163 231.551L559.269 232.922L559.807 233.047L562.644 233.686L563.269 233.826L564.682 234.143Z" fill="#E2723E"/>
<path d="M588.052 223.739V259.464L564.687 254.668L562.956 254.312L562.461 254.211L559.471 253.596L558.865 253.471L552.552 252.172L551.826 252.023H551.822L548.913 251.431L548.326 251.306L546.836 250.998L546.249 250.883L543.379 250.296L542.735 250.161L540.961 249.796L540.374 249.671L533.399 248.237L532.774 248.107L532.591 248.074L532.028 247.958L527.456 247.02L526.908 246.91L526.278 246.78L525.682 246.655L520.601 245.611L519.774 245.442L514.452 244.351L513.879 244.235L511.822 243.812H511.817L511.452 243.74L510.216 243.485L509.557 243.35H509.552L502.485 241.902L501.827 241.763L500.639 241.522L499.788 241.349L492.11 239.771L490.226 239.387L480.327 237.357L479.649 237.217L477.923 236.866C477.923 236.866 477.923 236.861 477.918 236.861L477.057 236.688L453.495 231.849V193.508L496.836 203.244L497.601 203.417L519.302 208.294L520.312 208.52L528.062 210.266L528.807 210.435L543.148 213.657L543.798 213.802L545.663 214.22L546.288 214.36L565.273 218.621L565.932 218.771L568.922 219.444L569.552 219.588L588.052 223.739Z" fill="#E2723E"/>
<path d="M588.052 259.464L564.682 269.868V234.144L588.052 223.739V259.464Z" fill="#E2723E"/>
<g style="mix-blend-mode:multiply">
<path d="M559.736 246.582C557.966 243.975 555.87 241.561 554.486 238.713C552.745 235.139 552.587 231.176 554.289 227.554C554.442 227.231 553.957 226.948 553.808 227.27C552.615 229.81 552.192 232.619 552.736 235.384C553.327 238.367 555.015 240.974 556.76 243.403C560.144 248.107 565.558 255.274 560.514 260.815C560.274 261.08 560.668 261.479 560.909 261.21C564.87 256.861 562.606 250.81 559.736 246.582Z" fill="#D2A690"/>
<path d="M556.249 246.106C556.052 245.803 555.572 246.087 555.769 246.39C557.86 249.613 559.124 253.22 559.471 257.049C559.504 257.405 560.062 257.41 560.028 257.049C559.668 253.119 558.399 249.411 556.249 246.106Z" fill="#D2A690"/>
<path d="M554.798 243.287C554.235 242.176 553.548 241.142 552.755 240.18C552.524 239.901 552.13 240.3 552.36 240.574C553.125 241.498 553.774 242.499 554.317 243.566C554.476 243.893 554.961 243.61 554.798 243.287Z" fill="#D2A690"/>
<path d="M546.606 258.983C543.654 256.977 541.889 253.783 541.082 250.358C540.62 248.396 540.461 246.371 540.442 244.36C540.423 242.58 540.149 240.122 541.404 238.694C541.639 238.424 541.245 238.025 541.009 238.299C539.793 239.68 539.899 241.599 539.885 243.336C539.86 245.567 539.976 247.819 540.437 250.007C541.226 253.764 543.106 257.275 546.327 259.464C546.62 259.671 546.904 259.185 546.606 258.983Z" fill="#D2A690"/>
<path d="M542.817 239.314C542.562 239.059 542.168 239.454 542.423 239.709C547.067 244.379 549.283 250.993 548.418 257.525C548.37 257.881 548.932 257.876 548.976 257.525C549.855 250.859 547.553 244.081 542.817 239.314Z" fill="#D2A690"/>
<path d="M545.024 244.952C544.914 244.61 544.375 244.755 544.486 245.101C545.558 248.405 547.135 252.436 546.577 256.001C543.87 252.465 542.255 248.261 541.899 243.817C541.87 243.461 541.313 243.456 541.341 243.817C541.726 248.622 543.519 253.11 546.543 256.862C546.673 257.025 546.966 256.929 547.01 256.737C547.885 252.908 546.188 248.545 545.024 244.952Z" fill="#D2A690"/>
<path d="M544.692 249.877C544.327 248.752 544.009 247.612 543.745 246.457C543.663 246.106 543.125 246.255 543.206 246.606C543.471 247.761 543.788 248.901 544.153 250.026C544.264 250.368 544.807 250.224 544.692 249.877Z" fill="#D2A690"/>
<path d="M547.89 265.847L547.168 265.674C545.236 262.441 542.692 259.464 540.967 256.159C540.803 255.842 541.284 255.563 541.452 255.88C543.265 259.358 545.928 262.451 547.89 265.847Z" fill="#D2A690"/>
<path d="M543.913 236.376C541.784 232.85 540.649 228.915 540.582 224.798C540.577 224.437 540.019 224.437 540.024 224.798C540.091 229.006 541.255 233.052 543.433 236.659C543.615 236.967 544.101 236.688 543.913 236.376Z" fill="#D2A690"/>
<path d="M557.629 268.184L557.086 268.055C558.192 263.408 557.826 258.458 555.927 253.99C555.793 253.658 556.274 253.374 556.413 253.711C558.365 258.314 558.764 263.398 557.629 268.184Z" fill="#D2A690"/>
<path d="M553.553 254.12C552.726 252.393 551.764 250.748 550.663 249.185C550.456 248.891 549.971 249.17 550.182 249.468C551.288 251.032 552.25 252.677 553.072 254.404C553.226 254.726 553.706 254.442 553.553 254.12Z" fill="#D2A690"/>
<path d="M526.337 250.161C525.413 248.997 524.236 248.352 522.947 247.669C520.731 246.496 519.702 244.783 519.664 242.263C519.635 240.353 519.981 238.439 520.087 236.529C520.192 234.533 520.212 232.522 520.077 230.531C519.976 228.973 519.726 227.433 519.01 226.029C518.24 224.523 517.058 223.282 515.899 222.07C515.649 221.81 515.255 222.205 515.505 222.465C516.683 223.701 517.899 224.961 518.635 226.524C519.495 228.347 519.553 230.42 519.596 232.397C519.635 234.235 519.582 236.072 519.438 237.905C519.298 239.67 518.966 241.464 519.163 243.239C519.293 244.408 519.659 245.572 520.409 246.496C521.264 247.549 522.529 248.04 523.678 248.68C526.611 250.305 528.087 253.672 527.279 256.934C527.192 257.285 527.731 257.434 527.817 257.083C528.418 254.673 527.894 252.109 526.337 250.161Z" fill="#D2A690"/>
<path d="M530.024 261.566L529.346 261.402C528.207 258.492 528.62 255.072 528.601 252.018C528.596 251.662 529.154 251.662 529.159 252.018C529.188 255.106 528.731 258.67 530.024 261.566Z" fill="#D2A690"/>
<path d="M521.635 235.307C521.428 235.014 520.942 235.293 521.154 235.591C523.885 239.468 527.63 243.562 526.784 248.694C526.726 249.045 527.264 249.199 527.322 248.843C528.202 243.513 524.481 239.348 521.635 235.307Z" fill="#D2A690"/>
<path d="M524.279 241.267C524.111 240.95 523.625 241.233 523.798 241.551C524.755 243.35 525.418 245.24 525.798 247.241C525.865 247.592 526.404 247.443 526.337 247.092C525.942 245.043 525.255 243.105 524.279 241.267Z" fill="#D2A690"/>
<path d="M523.697 233.114C522.077 230.045 521.553 226.611 522.192 223.196C522.259 222.845 521.721 222.695 521.654 223.047C520.985 226.616 521.519 230.185 523.216 233.393C523.384 233.715 523.865 233.436 523.697 233.114Z" fill="#D2A690"/>
<path d="M533.966 236.428C533.25 234.485 532.558 232.537 531.812 230.608C531.173 228.944 530.452 227.337 529.514 225.817C528.404 224.028 527.12 222.268 527.283 220.055C527.312 219.694 526.75 219.699 526.726 220.055C526.509 222.936 528.591 225.12 529.851 227.52C531.442 230.55 532.697 234.057 533.702 237.328C533.856 237.833 534.106 238.521 533.99 239.045C533.606 240.825 531.74 239.132 531.351 238.704C530.75 238.045 530.351 237.198 530.062 236.366C529.567 234.918 529.428 233.369 529.096 231.883C528.442 228.987 527.024 226.371 525.033 224.177C524.793 223.913 524.399 224.307 524.639 224.572C526.082 226.159 527.231 227.972 527.971 229.997C528.644 231.835 528.793 233.768 529.279 235.654C529.654 237.111 531.851 241.931 534.067 239.993C535.115 239.074 534.341 237.448 533.966 236.428Z" fill="#D2A690"/>
<path d="M521.485 238.102C521.543 237.751 521.005 237.597 520.947 237.953C520.644 239.786 520.625 241.59 520.884 243.427C520.933 243.783 521.471 243.629 521.423 243.278C521.178 241.546 521.197 239.829 521.485 238.102Z" fill="#D2A690"/>
<path d="M509.529 242.215C508.313 240.397 506.491 238.997 505.524 237.015C504.236 234.379 505.543 231.488 505.178 228.723C504.813 225.962 503.399 223.47 503.039 220.699C502.991 220.348 502.433 220.344 502.481 220.699C502.798 223.143 503.88 225.351 504.428 227.737C505.077 230.551 503.827 233.417 504.601 236.173C505.125 238.04 506.529 239.449 507.765 240.868C508.596 241.825 509.404 242.835 509.861 244.038C510.418 245.51 510.452 247.112 510.452 248.66C510.452 249.021 511.01 249.021 511.01 248.66C511.01 246.395 510.822 244.153 509.529 242.215Z" fill="#D2A690"/>
<path d="M511.938 243.504C511.077 240.892 510.669 238.651 511.082 235.909C511.346 234.177 511.274 232.537 510.462 230.95C509.505 229.083 507.63 227.977 506.601 226.149C505.462 224.119 505.048 221.772 504.813 219.487C504.774 219.131 504.217 219.131 504.255 219.487C504.457 221.426 504.77 223.374 505.52 225.187C506.332 227.14 507.616 228.271 508.991 229.81C510.971 232.032 510.678 234.355 510.342 237.083C510.058 239.372 510.688 241.498 511.399 243.653C511.51 243.995 512.053 243.85 511.938 243.504Z" fill="#D2A690"/>
<path d="M508.976 234.447C508.668 232.768 507.991 231.214 507.067 229.79C506.87 229.492 506.39 229.771 506.587 230.074C507.808 231.95 508.495 233.999 508.63 236.241C508.644 236.496 508.659 236.751 508.659 237.006C508.587 237.515 508.447 237.549 508.241 237.107C507.89 236.881 507.62 236.231 507.433 235.87C506.88 234.793 506.64 233.667 506.616 232.46C506.606 232.099 506.048 232.099 506.058 232.46C506.092 233.97 506.467 235.433 507.269 236.717C507.577 237.208 508.289 238.497 509.034 238.006C509.692 237.559 509.101 235.12 508.976 234.447Z" fill="#D2A690"/>
<path d="M512.505 227.506C511.486 226.5 511.188 225.139 510.544 223.908C509.957 222.777 508.909 221.988 508.375 220.839C508.221 220.512 507.741 220.795 507.895 221.123C508.486 222.392 509.635 223.263 510.231 224.543C510.789 225.74 511.149 226.957 512.111 227.91C512.366 228.15 512.76 227.756 512.505 227.506Z" fill="#D2A690"/>
<path d="M517.717 258.612L516.919 258.42C516.847 258.295 516.779 258.179 516.712 258.054C515.765 256.303 515.236 254.355 514.89 252.407C514.409 249.714 514.284 246.943 513.871 244.235C513.587 242.34 513.154 240.469 512.356 238.679C512.212 238.357 512.693 238.068 512.837 238.4C513.698 240.32 514.145 242.321 514.443 244.35C514.784 246.664 514.933 249.026 515.279 251.354C515.611 253.562 516.125 255.789 517.198 257.771C517.351 258.064 517.524 258.343 517.717 258.612Z" fill="#D2A690"/>
<path d="M515.971 258.199L515.207 258.016C514.49 256.842 513.803 255.645 513.144 254.432C512.971 254.12 513.452 253.836 513.625 254.153C514.37 255.519 515.154 256.866 515.971 258.199Z" fill="#D2A690"/>
<path d="M503.024 255.096L502.428 254.952C502.38 254.711 502.322 254.476 502.259 254.24C501.673 251.936 500.279 250.426 498.538 248.91C497.101 247.66 495.769 246.433 494.808 244.759C493.716 242.845 492.889 240.579 490.812 239.584C491.336 243.778 493.399 247.703 496.644 250.45C497.995 251.59 499.634 252.383 500.413 254.062C500.481 254.206 500.543 254.36 500.596 254.509L499.889 254.341C499.63 253.769 499.269 253.24 498.759 252.768C497.317 251.45 495.692 250.507 494.394 249.002C492.048 246.284 490.62 242.932 490.226 239.377C490.216 239.3 490.202 239.213 490.197 239.136C490.183 238.963 490.389 238.805 490.548 238.867C491.139 239.084 491.654 239.391 492.106 239.762C493.192 240.647 493.928 241.888 494.606 243.172C495.822 245.486 497.298 247.063 499.24 248.771C500.875 250.209 502.154 251.729 502.735 253.86C502.846 254.274 502.937 254.683 503.024 255.096Z" fill="#D2A690"/>
<path d="M502.884 243.09C502.759 242.686 502.63 242.292 502.476 241.897C501.687 239.824 500.577 237.939 499.514 235.962C498.072 233.302 496.779 230.565 495.635 227.761C495.495 227.429 494.957 227.578 495.091 227.91C495.149 228.04 495.202 228.16 495.255 228.29C495.106 228.208 494.904 228.232 494.875 228.448C494.452 231.546 495.293 234.538 496.841 237.217C497.62 238.564 498.553 239.819 499.529 241.027C499.61 241.133 499.697 241.234 499.779 241.339C500.534 242.268 501.317 243.167 502.534 243.427C502.735 243.48 502.947 243.307 502.884 243.09ZM500.63 241.522C500.264 241.113 499.937 240.671 499.62 240.262C498.784 239.209 498 238.107 497.322 236.943C495.865 234.413 495.024 231.58 495.404 228.655C496.36 230.921 497.394 233.153 498.534 235.327C499.663 237.477 500.928 239.516 501.817 241.758C501.942 242.075 502.058 242.403 502.168 242.725C501.567 242.47 501.072 242.023 500.63 241.522Z" fill="#D2A690"/>
<path d="M505.938 248.882C505.553 247.338 504.914 245.904 504.024 244.591C503.823 244.293 503.337 244.577 503.544 244.875C504.409 246.154 505.029 247.535 505.399 249.036C505.486 249.377 506.024 249.228 505.938 248.882Z" fill="#D2A690"/>
<path d="M482.063 250.07L481.332 249.896C480.808 248.8 480.433 247.641 480.245 246.4C480.039 245 480 243.571 479.654 242.196C479.317 240.834 478.692 239.574 478.01 238.352C477.697 237.794 477.38 237.232 477.048 236.678C475.952 234.827 474.779 233.013 473.577 231.229C473.375 230.93 473.861 230.651 474.058 230.95C475.322 232.83 476.731 234.793 477.914 236.856C479.183 239.059 480.192 241.383 480.5 243.836C480.798 246.13 481.125 248.122 482.063 250.07Z" fill="#D2A690"/>
<path d="M482.866 242.407C481.202 239.43 479.775 236.342 478.587 233.148C478.462 232.811 477.924 232.96 478.049 233.297C479.255 236.539 480.698 239.67 482.385 242.691C482.558 243.004 483.044 242.725 482.866 242.407Z" fill="#D2A690"/>
<path d="M478.587 249.238L477.909 249.074C477.539 248.194 477.149 247.323 476.731 246.467C475.779 244.519 474.702 242.629 473.443 240.868C472.274 239.223 470.938 237.467 468.933 236.919C469.779 241.349 472.308 245.048 475.197 248.425L474.279 248.204C471.443 244.808 469.024 241.08 468.303 236.631C468.27 236.404 468.428 236.246 468.649 236.284C470.544 236.621 471.88 237.934 473.039 239.396C474.486 241.239 475.712 243.244 476.779 245.327C477.443 246.607 478.034 247.915 478.587 249.238Z" fill="#D2A690"/>
<path d="M473.385 236.986C473.178 236.693 472.693 236.972 472.904 237.27C474.645 239.723 477.352 241.772 477.611 244.971C477.64 245.327 478.198 245.332 478.169 244.971C477.895 241.618 475.202 239.555 473.385 236.986Z" fill="#D2A690"/>
<path d="M537.721 260.426C536.236 256.38 534.798 252.316 533.394 248.242C533.14 247.496 532.88 246.756 532.63 246.01C532.635 245.967 532.635 245.919 532.64 245.875C532.649 245.745 532.582 245.668 532.5 245.635C532.457 245.495 532.404 245.356 532.356 245.221C532.245 244.88 531.702 245.024 531.817 245.365C531.894 245.606 531.986 245.846 532.063 246.087C532.015 246.712 532 247.338 532.019 247.963C532.12 252.691 533.981 257.232 537.26 260.7C537.442 260.888 537.822 260.695 537.721 260.426ZM532.587 248.083C532.582 247.91 532.577 247.732 532.577 247.554C532.644 247.746 532.707 247.929 532.774 248.117C534.048 251.821 535.346 255.505 536.688 259.185C534.14 256.025 532.707 252.124 532.587 248.083Z" fill="#D2A690"/>
<path d="M564.716 238.949C563.615 236.039 563.437 232.831 561.697 230.175C561.5 229.877 561.014 230.156 561.216 230.459C562.548 232.494 562.937 234.841 563.558 237.145C563.841 238.203 564.216 239.204 564.63 240.214C564.87 240.806 565.125 241.393 565.298 242.008C565.428 242.441 565.514 242.879 565.553 243.331C565.298 243.658 565.057 243.668 564.836 243.35C563.894 242.98 562.884 241.57 562.317 240.786C561.683 239.916 561.154 238.963 560.75 237.963C559.884 235.822 559.615 233.499 559.952 231.219C560.005 230.868 559.466 230.714 559.413 231.07C559.034 233.624 559.356 236.193 560.399 238.559C560.961 239.844 561.721 241.037 562.649 242.09C563.202 242.715 564.346 244.129 565.25 244.255C567.37 244.548 564.957 239.579 564.716 238.949Z" fill="#D2A690"/>
<path d="M580.841 247.578C579.697 245.428 577.509 244.115 575.336 243.187C574.88 242.989 574.317 242.879 573.904 242.619C572.625 241.816 572.673 240.945 572.519 239.637C572.365 238.333 572.12 237.039 571.755 235.774C571.024 233.254 569.836 230.926 568.144 228.915C567.913 228.641 567.519 229.035 567.75 229.31C569.63 231.541 570.841 234.192 571.5 237.02C571.827 238.41 571.884 239.81 572.11 241.21C572.25 242.09 572.548 242.6 573.346 242.989C575.798 244.192 578.447 244.885 580.048 247.323C581.63 249.733 581.697 253.302 582.168 256.078C582.231 256.434 582.769 256.28 582.707 255.929C582.245 253.24 582.144 250.027 580.841 247.578Z" fill="#D2A690"/>
<path d="M582.938 246.443C581.567 244.577 579.154 243.951 577.616 242.258C577.375 241.989 576.981 242.388 577.221 242.653C578.692 244.279 580.971 244.894 582.346 246.602C583.894 248.521 584.423 251.474 584.784 253.855C584.837 254.211 585.375 254.057 585.322 253.706C584.957 251.306 584.409 248.444 582.938 246.443Z" fill="#D2A690"/>
<path d="M581.423 234.904C580.456 233.427 579.139 232.316 577.894 231.08C576.36 229.56 575.182 227.794 574.327 225.813C574.182 225.486 573.702 225.769 573.846 226.096C574.5 227.607 575.336 229.011 576.394 230.276C577.562 231.671 579.043 232.758 580.197 234.163C582.322 236.746 583.173 240.074 583.235 243.365C582.153 241.344 579.855 240.281 578.019 238.901C575.033 236.659 573.904 233.008 573.447 229.449C573.404 229.098 572.841 229.093 572.889 229.449C573.254 232.311 573.99 235.236 575.817 237.54C577.985 240.272 582.528 241.239 583.226 245C583.283 245.322 583.759 245.226 583.774 244.928C583.956 241.465 583.351 237.852 581.423 234.904Z" fill="#D2A690"/>
<path d="M580.211 238.535C577.879 236.106 576.115 233.268 574.971 230.103C574.85 229.766 574.307 229.911 574.432 230.252C575.61 233.508 577.418 236.433 579.817 238.934C580.062 239.194 580.461 238.795 580.211 238.535Z" fill="#D2A690"/>
<path d="M580.783 237.342C580.48 236.573 580.096 235.856 579.615 235.182C579.408 234.894 578.922 235.173 579.134 235.466C579.586 236.096 579.961 236.77 580.249 237.491C580.374 237.823 580.913 237.679 580.783 237.342Z" fill="#D2A690"/>
<path d="M588.052 237.385V238.141C587.475 237.563 586.841 237.044 586.331 236.414C585.177 234.971 584.903 233.08 583.966 231.522C582.927 229.8 581.427 228.424 579.961 227.068C579.692 226.827 580.091 226.428 580.351 226.678C582.278 228.453 584.173 230.266 585.187 232.734C585.879 234.418 586.394 235.793 587.735 237.073C587.846 237.174 587.951 237.28 588.052 237.385Z" fill="#D2A690"/>
<path d="M546.288 221.743C545.298 219.204 544.307 216.664 543.327 214.119C543.264 213.961 543.202 213.807 543.144 213.648L543.793 213.792C543.884 214.023 543.971 214.249 544.062 214.48C544.985 216.851 545.908 219.218 546.831 221.589C546.952 221.926 546.413 222.075 546.288 221.743Z" fill="#D2A690"/>
<path d="M547.067 218.492C546.62 217.087 546.096 215.654 545.654 214.211L546.279 214.35C546.697 215.692 547.192 217.025 547.606 218.338C547.711 218.689 547.178 218.833 547.067 218.492Z" fill="#D2A690"/>
<path d="M569.37 224.129C568.125 224.48 566.802 221.719 566.346 220.911C565.927 220.165 565.562 219.401 565.269 218.612L565.927 218.761C565.956 218.838 565.99 218.92 566.024 218.997C566.538 220.194 567.298 222.041 568.35 222.869C568.485 223.244 568.721 223.335 569.057 223.133C569.403 223.196 569.543 223.085 569.466 222.801C569.581 222.537 569.432 221.873 569.403 221.623C569.322 220.872 569.149 220.151 568.923 219.434L569.552 219.579C569.692 220.055 569.802 220.536 569.889 221.026C570.019 221.844 570.466 223.816 569.37 224.129Z" fill="#D2A690"/>
<path d="M528.798 210.43C528.26 210.945 527.606 211.315 526.75 211.464C525.284 211.729 523.015 211.503 521.707 210.781C520.784 210.266 519.995 209.309 519.293 208.294L520.303 208.52C520.332 208.564 520.37 208.616 520.404 208.66C521.135 209.617 521.779 210.329 522.99 210.632C523.837 210.844 524.755 210.973 525.63 210.983C526.654 210.993 527.428 210.728 528.048 210.262L528.798 210.43Z" fill="#D2A690"/>
<path d="M500.226 208.804C499.115 206.938 497.981 205.081 496.827 203.239L497.591 203.412C498.649 205.105 499.683 206.808 500.707 208.525C500.894 208.833 500.413 209.121 500.226 208.804Z" fill="#D2A690"/>
</g>
<path d="M614.86 128.043C614.571 125.277 613.509 121.905 611.115 120.241C608.394 118.35 604.711 119.428 601.946 120.635C599.076 121.886 596.528 123.762 594.302 125.95C589.36 130.799 585.961 136.961 582.562 142.925C580.067 147.307 577.548 151.675 575.076 156.066C572.879 159.967 570.942 163.945 569.639 168.241C568.384 172.377 568.192 176.721 567.139 180.896C566.336 184.085 558.274 204.59 566.581 203.773C567.971 203.638 569.197 202.661 570.163 201.728C571.745 200.199 573.158 198.443 574.524 196.721C577.004 193.59 579.259 190.295 581.514 186.995C583.865 183.556 586.144 180.097 587.773 176.244C589.37 172.469 590.538 168.51 592.418 164.859C594.249 161.304 596.802 158.211 599.514 155.297C604.528 149.909 610.134 144.931 613.086 138.024C614.413 134.897 615.216 131.458 614.86 128.043Z" fill="#43AF95"/>
<path d="M567.119 138.307C566.845 136.013 566.268 133.748 565.283 131.65C564.451 129.885 563.153 127.6 561.389 126.609C559.432 125.513 557.917 127.244 556.903 128.784C555.523 130.876 554.865 133.363 554.288 135.777C552.768 142.122 551.312 148.476 549.821 154.825C548.297 161.319 546.485 167.673 547.466 174.393C548.374 180.607 549.312 186.875 549.297 193.166C549.293 195.235 549.365 197.25 551.759 197.789C556.268 198.809 558.754 193.219 559.744 189.828C561.389 184.22 561.384 178.313 561.768 172.531C562.192 166.225 563.74 160.314 565.326 154.229C566.682 149.039 567.764 143.7 567.119 138.307Z" fill="#43AF95"/>
<path d="M463.193 171.05C458.899 157.509 452.75 144.604 445.832 132.194C443.928 128.774 441.924 125.34 439.102 122.631C436.049 119.707 426.448 114.757 424.15 121.184C423.477 123.069 423.866 125.162 424.419 127.086C427.054 136.196 432.943 145.316 438.952 152.613C444.51 159.356 451.702 164.936 455.553 172.786C456.303 174.316 456.678 176.769 457.707 178.077C458.462 179.034 460.313 179.256 461.486 179.131C462.654 179.01 463.823 178.347 464.27 177.26C464.702 176.206 464.399 175.008 464.073 173.912C463.789 172.959 463.496 172.002 463.193 171.05Z" fill="#43AF95"/>
<path d="M478.414 102.578C477.058 99.591 473.63 93.208 469.457 96.1518C467.861 97.2774 467.039 99.3024 466.529 101.116C465.731 103.973 465.236 106.974 464.846 109.909C464.375 113.43 464.188 116.999 464.544 120.539C464.875 123.858 465.707 127.095 466.327 130.366C466.991 133.848 467.399 137.365 467.683 140.89C467.063 146.812 466.87 152.776 467.178 158.726C467.303 161.141 467.563 163.772 469.125 165.734C470.337 167.25 472.26 168.293 474.226 167.817C479.774 166.485 478.447 159.169 478.178 155.133C477.731 148.461 478.745 141.814 479.745 135.239C481.385 124.498 483.072 112.833 478.414 102.578Z" fill="#43AF95"/>
<path d="M625.451 176.495C624.408 174.494 622.326 173.147 620.201 172.531C615.244 171.088 610.244 173.224 606.345 176.23C601.437 180.02 597.191 184.883 593.509 189.852C592.533 191.17 591.595 192.517 590.701 193.888C589.768 194.778 588.855 195.696 587.975 196.644C586.24 198.525 584.629 200.535 583.23 202.681C581.913 204.701 580.192 207.221 579.821 209.655C579.48 211.911 581.615 212.628 583.466 212.974C585.768 213.402 588.153 213.013 590.316 212.176C595.509 210.17 599.047 205.951 602.566 201.834C604.408 199.684 606.287 197.539 608.499 195.754C610.509 194.138 612.773 192.868 615.004 191.584C618.816 189.39 622.951 187.005 625.033 182.94C626.061 180.934 626.528 178.573 625.451 176.495Z" fill="#43AF95"/>
<path d="M585.384 225.827L567.399 235.486L481.716 216.279L497.99 205.932L585.384 225.827Z" fill="#E6BCA8"/>
<path d="M539.504 119.995C539.523 119.812 539.543 119.63 539.562 119.447C539.769 117.398 539.898 115.305 539.456 113.29C539.009 111.279 537.918 109.326 536.148 108.268C533.846 106.883 530.884 107.239 528.36 108.167C522.822 110.207 518.389 114.752 515.903 120.111C513.418 125.464 512.783 131.559 513.451 137.427C514.538 146.917 518.879 155.725 520.927 165.056C522.427 171.896 522.687 178.914 523.49 185.855C524.129 191.377 524.466 201.132 530.365 203.811C531.73 204.431 533.442 204.431 534.629 203.522C535.701 202.7 536.168 201.319 536.504 200.011C540.581 184.162 534.552 168.034 534.942 152.064C535.211 141.256 538.35 130.736 539.504 119.995Z" fill="#44A48D"/>
<path d="M513.611 183.286C512.933 180.434 511.683 177.567 510.971 174.825C508.197 164.113 508.76 152.463 503.553 142.439C502.428 140.275 501.053 138.206 499.356 136.441C498.13 135.166 496.447 133.858 494.563 134.397C492.803 134.902 491.875 136.797 491.452 138.432C490.784 141.03 490.866 143.82 491.241 146.456C492.159 152.92 494.466 159.342 496.625 165.479C497.822 168.885 499.168 172.228 500.524 175.571C501.909 178.981 503.01 182.493 504.125 185.999C504.822 188.202 504.827 190.622 505.87 192.719C507.51 196.023 510.25 195.211 512.168 192.656C514.413 189.669 514.37 186.485 513.611 183.286Z" fill="#43AF95"/>
<path d="M570.071 228.828C570.009 228.828 569.946 228.819 569.884 228.795C569.591 228.689 569.442 228.371 569.543 228.083C569.643 227.789 572.196 220.81 583.23 209.626C589.292 203.484 591.783 199.939 593.98 196.808C595.792 194.229 597.355 192.002 600.48 188.929C607.364 182.166 612.206 180.468 612.408 180.396C612.696 180.299 613.018 180.453 613.114 180.742C613.215 181.035 613.057 181.353 612.768 181.454C612.72 181.468 607.941 183.166 601.259 189.727C598.206 192.729 596.667 194.917 594.889 197.452C592.667 200.617 590.148 204.205 584.023 210.415C573.196 221.387 570.619 228.386 570.595 228.458C570.514 228.684 570.297 228.828 570.071 228.828Z" fill="#456664"/>
<path d="M557.523 231.325C557.495 231.325 557.461 231.32 557.432 231.315C557.129 231.267 556.923 230.978 556.971 230.671C557.072 230.05 559.514 215.427 562.331 208.766C563.288 206.495 564.841 202.604 566.634 198.102C570.115 189.366 574.446 178.491 577.033 173.003C580.884 164.835 584.456 152.218 584.494 152.093C584.581 151.795 584.889 151.622 585.187 151.708C585.485 151.79 585.658 152.103 585.571 152.396C585.533 152.521 581.932 165.229 578.047 173.479C575.475 178.938 571.148 189.795 567.677 198.515C565.879 203.027 564.326 206.923 563.365 209.203C560.6 215.745 558.105 230.704 558.081 230.858C558.033 231.132 557.793 231.325 557.523 231.325Z" fill="#456664"/>
<path d="M552.384 227.284C552.082 227.284 551.836 227.044 551.827 226.741C551.822 226.534 551.293 205.778 553.702 193.392C555.404 184.624 555.533 170.492 555.606 162.897C555.649 157.957 555.673 157.418 555.86 157.129C556.029 156.87 556.375 156.793 556.634 156.961C556.865 157.11 556.952 157.399 556.851 157.644C556.774 158.048 556.75 160.304 556.726 162.906C556.654 170.535 556.524 184.734 554.803 193.604C552.418 205.87 552.942 226.5 552.947 226.707C552.957 227.015 552.711 227.275 552.404 227.28C552.394 227.284 552.389 227.284 552.384 227.284ZM556.798 157.731C556.798 157.735 556.798 157.735 556.798 157.731C556.798 157.735 556.798 157.735 556.798 157.731Z" fill="#456664"/>
<path d="M534.019 222.58C533.985 222.58 533.951 222.575 533.918 222.57C533.625 222.517 533.427 222.243 533.466 221.955C533.509 220.781 531.475 195.494 530.206 183.426C529.206 173.926 526.23 157.028 524.259 145.849C523.706 142.718 523.25 140.111 522.956 138.365C521.639 130.467 527.062 119.432 527.293 118.966C527.432 118.687 527.764 118.576 528.043 118.716C528.317 118.855 528.432 119.187 528.293 119.466C528.24 119.577 522.798 130.64 524.057 138.182C524.351 139.928 524.807 142.53 525.36 145.657C527.331 156.85 530.312 173.767 531.317 183.306C532.509 194.619 534.711 221.358 534.572 222.118C534.519 222.392 534.283 222.58 534.019 222.58Z" fill="#456664"/>
<path d="M510.831 213.542C510.822 213.542 510.812 213.542 510.802 213.542C510.495 213.527 510.254 213.263 510.274 212.955C510.283 212.772 511.173 194.412 508.812 187.615C506.408 180.694 499.197 152.665 499.125 152.382C499.048 152.083 499.226 151.776 499.528 151.699C499.827 151.622 500.134 151.8 500.211 152.103C500.283 152.386 507.485 180.367 509.87 187.245C512.302 194.249 511.427 212.248 511.389 213.008C511.375 213.311 511.125 213.542 510.831 213.542Z" fill="#456664"/>
<path d="M459.967 168.856C459.784 168.856 459.606 168.765 459.495 168.601L440.433 139.308C440.265 139.048 440.337 138.702 440.596 138.534C440.856 138.365 441.202 138.437 441.37 138.697L460.433 167.99C460.601 168.25 460.529 168.597 460.269 168.765C460.178 168.823 460.072 168.856 459.967 168.856Z" fill="#456664"/>
<path d="M457.197 275.164C456.808 275.164 456.433 274.962 456.226 274.601C455.919 274.062 456.106 273.379 456.644 273.076L480.712 259.31C481.25 259.002 481.933 259.189 482.236 259.728C482.543 260.267 482.356 260.95 481.817 261.253L457.75 275.015C457.577 275.116 457.385 275.164 457.197 275.164Z" fill="#232C44"/>
<path d="M486.491 272.72C486.385 272.72 486.279 272.706 486.173 272.672L455.842 263.721C455.25 263.548 454.909 262.922 455.087 262.331C455.26 261.739 455.885 261.402 456.476 261.575L486.808 270.527C487.399 270.7 487.741 271.325 487.563 271.917C487.418 272.408 486.971 272.72 486.491 272.72Z" fill="#232C44"/>
<path d="M434.26 181.901L441.592 170.795L448.918 178.65L438.034 189.366L434.26 181.901Z" fill="#E99571"/>
<path d="M440.904 256.924L444.683 265.64L448.404 268.598L450.659 263.254C450.659 263.254 448.539 254.61 448.322 254.812C448.101 255.014 440.904 256.924 440.904 256.924Z" fill="#E99571"/>
<path d="M444.683 265.645C444.683 265.645 446.135 266.539 447.5 265.64C448.866 264.745 450.654 263.254 450.654 263.254C450.654 263.254 452.866 267.655 452.914 268.473C452.962 269.291 448 277.959 446.371 279.123C444.741 280.287 441.678 280.777 441.121 278.959C440.563 277.146 444.683 265.645 444.683 265.645Z" fill="#E6BCA8"/>
<path d="M443.221 279.397C442.197 279.397 441.514 279.022 441.466 278.993C441.331 278.916 441.283 278.747 441.36 278.613C441.437 278.478 441.606 278.43 441.74 278.507C441.812 278.545 443.495 279.454 445.524 278.084C447.649 276.65 451.908 268.358 451.952 268.276C452.024 268.136 452.192 268.083 452.327 268.156C452.466 268.228 452.519 268.396 452.447 268.531C452.269 268.877 448.077 277.035 445.836 278.55C444.865 279.204 443.956 279.397 443.221 279.397Z" fill="white"/>
<path d="M443.438 271.758C443.289 271.758 443.164 271.638 443.159 271.489C443.154 271.335 443.274 271.205 443.428 271.2L446.741 271.099C446.88 271.09 447.024 271.215 447.029 271.369C447.034 271.522 446.914 271.652 446.76 271.657L443.447 271.758C443.447 271.758 443.443 271.758 443.438 271.758Z" fill="white"/>
<path d="M444.76 269.449C443.899 269.449 443.89 269.396 443.861 269.252L444.135 269.194V268.915C444.222 268.915 447.669 268.829 447.669 268.829L447.683 269.387C446.207 269.425 445.308 269.449 444.76 269.449Z" fill="white"/>
<path d="M444.461 269.45V278.949L446.697 283.144L450.889 279.137C450.889 279.137 452.38 270.363 452.101 270.464C451.822 270.561 444.461 269.45 444.461 269.45Z" fill="#E99571"/>
<path d="M444.461 278.954C444.461 278.954 445.437 280.354 447.048 280.075C448.654 279.796 450.889 279.142 450.889 279.142C450.889 279.142 451.168 284.058 450.889 284.827C450.611 285.597 442.611 291.576 440.654 291.994C438.697 292.413 435.692 291.643 435.904 289.758C436.111 287.867 444.461 278.954 444.461 278.954Z" fill="#E6BCA8"/>
<path d="M439.409 291.345C437.303 291.345 436.255 289.989 436.202 289.921C436.111 289.796 436.135 289.623 436.255 289.532C436.375 289.44 436.553 289.464 436.644 289.585C436.692 289.647 437.875 291.153 440.284 290.7C442.803 290.229 450.01 284.318 450.082 284.26C450.202 284.164 450.375 284.178 450.476 284.298C450.572 284.419 450.558 284.592 450.438 284.693C450.139 284.938 443.048 290.758 440.389 291.254C440.039 291.316 439.712 291.345 439.409 291.345Z" fill="white"/>
<path d="M444.082 285.313C444.048 285.313 444.014 285.308 443.981 285.294L440.899 284.072C440.755 284.014 440.687 283.851 440.74 283.707C440.798 283.562 440.961 283.495 441.106 283.548L444.187 284.77C444.332 284.827 444.399 284.991 444.346 285.135C444.298 285.246 444.192 285.313 444.082 285.313Z" fill="white"/>
<path d="M445.721 283.581C442.226 282.167 442.226 282.167 442.269 281.941L442.818 282.052L442.543 281.999L442.654 281.744C442.736 281.778 445.928 283.072 445.928 283.072L445.721 283.581Z" fill="white"/>
<path d="M488.231 174.743C488.269 175.239 487.414 182.93 490.486 185.504C493.563 188.072 499.942 188.38 500.361 189.741C500.779 191.102 499.592 196.793 498.332 197.885C497.072 198.981 491.875 195.773 486.866 197.428C484.217 198.303 481.457 207.986 481.457 207.986L488.231 174.743Z" fill="#DE684E"/>
<path d="M466.986 162.848C466.986 162.848 488.37 165.22 488.923 166.436C489.476 167.653 487.202 181.819 486.582 185.465C484.462 197.962 482.168 208.111 482.168 208.111L447.746 204.34L466.986 162.848Z" fill="#DE684E"/>
<path d="M452.149 194.494L450.89 200.458C450.89 200.458 480.865 223.878 483.851 215.163C486.832 206.447 481.077 196.423 481.077 196.423L452.149 194.494Z" fill="#485A7E"/>
<path d="M487.259 169.078C487.259 169.14 487.255 169.193 487.25 169.251C487.245 169.376 487.235 169.496 487.226 169.616C487.197 170.001 487.182 170.372 487.168 170.737C487.163 170.886 487.163 171.04 487.163 171.189V171.194C487.178 172.873 487.019 174.566 486.86 176.259C486.846 176.442 486.827 176.625 486.812 176.807C486.774 177.245 486.74 177.688 486.707 178.121C486.692 178.323 486.678 178.525 486.668 178.727C486.625 179.458 486.596 180.184 486.606 180.915C486.634 182.657 486.428 184.633 486.168 186.606C486.12 186.995 486.062 187.394 486.009 187.784C485.981 187.967 485.961 188.159 485.932 188.342C485.928 188.39 485.918 188.448 485.908 188.501C485.884 188.684 485.86 188.871 485.836 189.049C485.697 190.05 485.567 191.016 485.471 191.921C485.447 192.118 485.336 192.532 485.154 193.066C485.096 193.234 485.038 193.417 484.961 193.614C484.505 194.874 483.798 196.538 483.134 197.775C483.029 197.967 482.928 198.145 482.827 198.313C482.404 199.011 482.005 199.482 481.707 199.487C475 199.67 471.586 198.477 464.947 197.592C462.096 197.212 452.139 194.504 452.139 194.504C452.139 194.504 451.269 194.08 450.697 192.339C450.639 192.166 450.591 191.983 450.538 191.781C450.51 191.675 450.481 191.555 450.461 191.44C450.423 191.247 450.389 191.055 450.361 190.843C450.168 189.569 450.149 187.866 450.461 185.615C450.505 185.312 450.534 185.004 450.553 184.691C450.567 184.518 450.577 184.34 450.586 184.167C450.596 183.729 450.596 183.296 450.577 182.859C450.577 182.729 450.572 182.594 450.553 182.459C450.548 182.267 450.529 182.079 450.51 181.887C450.351 180.227 449.971 178.568 449.49 177.029C449 175.441 448.808 173.917 448.966 172.368C448.981 172.233 449 172.094 449.014 171.959C449.019 171.892 449.029 171.829 449.043 171.762C449.058 171.632 449.082 171.507 449.106 171.382C449.183 170.968 449.288 170.55 449.418 170.121C449.837 168.722 450.38 167.385 450.856 166.033C450.913 165.855 450.971 165.677 451.034 165.494C451.298 164.691 451.524 163.868 451.687 163.027C451.726 162.829 451.76 162.627 451.788 162.43C451.817 162.257 451.836 162.079 451.856 161.901C451.928 161.247 451.245 158.741 451.298 156.894C451.298 156.846 451.303 156.798 451.303 156.749C451.418 156.648 451.538 156.547 451.649 156.446C451.928 156.196 452.192 155.965 452.442 155.749C452.601 155.614 452.745 155.484 452.894 155.364C455.461 153.296 457.88 152.858 472.889 153.955C475.726 154.162 478.322 154.739 480.572 155.869C480.572 155.869 480.649 155.908 480.788 155.975C480.832 156.004 480.889 156.033 480.952 156.057C480.99 156.081 481.029 156.1 481.077 156.124C482.807 157.086 484.327 158.394 485.567 160.15C485.682 160.314 485.798 160.472 485.908 160.646C485.981 160.761 486.057 160.881 486.134 161.002C486.231 161.16 486.327 161.314 486.408 161.473C486.519 161.665 486.62 161.853 486.721 162.05C487.735 164.008 487.447 166.673 487.259 169.078Z" fill="#E6BCA8"/>
<path d="M481.13 132.338C481.053 132.242 480.957 132.232 480.875 132.266C480.837 131.145 480.553 130.044 479.942 129.086C479.62 128.581 479.212 128.139 478.731 127.788C478.005 127.254 477.029 127.066 476.37 126.441C475.774 125.873 475.539 125.017 475.019 124.397C474.553 123.843 473.947 123.401 473.274 123.136C472.418 122.8 471.529 122.771 470.688 122.987C468.793 122.434 465.842 122.275 465.178 122.285C463.794 122.304 462 122.405 460.899 123.362C460.366 123.829 460.313 124.262 460.072 124.868C459.702 125.806 458.467 125.893 457.616 126.292C454.981 127.533 453.601 130.101 454.957 132.8C455.616 134.113 455.313 134.782 454.649 136.003C454.38 136.504 454.082 137.11 454.188 137.701C454.385 138.798 455.967 139.159 456.914 139.356C457.726 141.482 460.572 142.204 462.789 142.901C464.822 143.541 466.89 144.07 468.981 144.503C470.087 144.729 470.875 145.133 471.885 145.585C472.154 145.705 472.409 145.753 472.683 145.84C473.452 146.085 473.851 146.446 474.303 147.038C474.212 147.249 474.125 147.466 474.043 147.682C473.923 148.009 474.111 148.332 474.226 148.009C474.293 147.831 476.861 144.171 477.938 142.68C478.284 142.199 478.606 141.684 478.774 141.112C479.091 140.044 478.851 139.077 479.894 138.322C480.89 137.6 481.394 136.874 481.587 135.633C481.76 134.522 481.885 133.257 481.13 132.338Z" fill="#252730"/>
<path d="M474.981 145.465C471.861 152.247 471.952 151.809 468.51 153.17C467.043 153.748 465.673 154.45 464.038 154.2C461.745 153.844 459.981 151.915 459.029 149.909C457.716 147.163 457.337 142.256 457.226 139C457.216 138.596 457.212 138.226 457.207 137.884C457.188 136.566 457.207 135.715 457.207 135.715C457.207 135.715 457.279 132.429 457.74 130.789C458.202 129.159 462.962 128.774 464.538 127.826C467.245 126.176 474.524 130.082 474.524 130.082C474.524 130.082 478.106 138.673 474.981 145.465Z" fill="#E99571"/>
<path d="M473.818 144.719L475.202 155.811C475.202 155.811 472.63 159.534 468.88 159.76C465.226 159.982 463.433 157.139 463.433 157.139L462.395 148.524L473.818 144.719Z" fill="#E99571"/>
<path d="M459.337 139.938C459.39 139.933 459.447 139.938 459.51 139.953C460.048 140.073 459.981 141.054 459.938 141.463C459.885 141.958 459.447 142.271 459.067 141.819C458.745 141.448 458.63 139.977 459.337 139.938Z" fill="#252730"/>
<path d="M467.596 140.13C467.649 140.126 467.707 140.13 467.774 140.145C468.322 140.27 468.25 141.266 468.207 141.679C468.154 142.184 467.707 142.502 467.322 142.04C466.996 141.66 466.875 140.169 467.596 140.13Z" fill="#252730"/>
<path d="M463.606 146.811C462.957 146.811 461.847 146.686 461.741 145.83C461.649 145.128 461.827 143.916 461.832 143.863C461.856 143.709 461.996 143.603 462.149 143.627C462.303 143.651 462.409 143.791 462.385 143.945C462.385 143.954 462.212 145.133 462.294 145.758C462.356 146.239 463.472 146.287 464 146.229C464.149 146.215 464.294 146.326 464.308 146.479C464.323 146.633 464.212 146.768 464.058 146.787C464 146.797 463.832 146.811 463.606 146.811Z" fill="#8F5238"/>
<path d="M461.639 147.884C461.639 147.884 462.668 148.331 464.096 148.24C465.524 148.149 467.067 147.658 467.067 147.658C467.067 147.658 466.351 149.447 464.096 149.534C461.841 149.625 461.639 147.884 461.639 147.884Z" fill="#8F5238"/>
<path d="M464 154.262C463.611 154.262 463.365 154.219 463.293 154.176C463.163 154.094 463.12 153.925 463.197 153.791C463.274 153.666 463.428 153.622 463.553 153.68C463.812 153.748 465.985 153.82 469.014 152.271C472.091 150.698 473.082 148.61 473.091 148.591C473.154 148.452 473.322 148.389 473.461 148.452C473.601 148.514 473.663 148.683 473.601 148.822C473.558 148.913 472.534 151.102 469.269 152.766C466.885 153.988 464.981 154.262 464 154.262Z" fill="#8F5238"/>
<path d="M461.029 138.779C460.533 139.058 459.529 138.918 458.961 138.952C458.389 138.99 457.807 139.014 457.231 139C457.221 138.596 457.216 138.225 457.211 137.884C457.87 137.571 458.678 137.518 459.37 137.557C459.899 137.586 460.851 137.619 461.211 138.081C461.375 138.293 461.379 138.577 461.029 138.779Z" fill="#252730"/>
<path d="M465.842 138.077C466.202 137.62 467.154 137.581 467.688 137.557C468.731 137.504 470.039 137.648 470.702 138.562C470.832 138.74 470.654 138.952 470.471 138.966C469.678 139.034 468.885 138.995 468.092 138.947C467.524 138.913 466.519 139.053 466.024 138.774C465.664 138.577 465.668 138.293 465.842 138.077Z" fill="#252730"/>
<path d="M478.077 134.757C477.832 131.352 476.346 127.903 472.755 127.153C470.904 126.763 468.894 126.547 467.015 126.422C464.933 126.277 462.846 126.835 460.861 127.417C459.337 127.869 458.168 128.519 457.414 129.952C456.909 130.914 455.832 133.127 456.654 134.171C457.154 134.806 458.332 134.714 458.76 134.084C459.019 133.704 459.048 133.363 459.442 133.05C459.659 132.877 459.885 132.785 460.072 132.569C460.096 132.545 460.111 132.516 460.135 132.492C460.202 133.627 460.515 134.671 461.567 134.724C462.226 134.757 462.462 134.373 463.144 134.719C463.409 134.854 463.491 135.08 463.808 135.19C464.63 135.484 465.418 135.046 466.077 134.575C466.37 134.748 466.702 134.892 467.039 135.022C468.082 135.426 469.144 135.695 470.164 135.229C470.197 135.282 470.231 135.335 470.274 135.383C470.505 135.618 470.808 135.652 471.087 135.801C471.442 135.994 471.779 136.725 471.894 137.086C471.904 137.11 472.144 137.437 472.159 137.326C472.144 137.446 472.202 137.562 472.317 137.591C473.361 137.138 474.625 138.485 474.837 139.442C475.164 140.924 474.683 142.521 473.553 143.497C473.582 143.921 473.673 144.349 473.726 144.734C473.861 145.749 474.231 148.014 474.231 148.014C474.231 148.014 476.418 142.978 477.125 140.813C477.76 138.86 478.226 136.826 478.077 134.757Z" fill="#252730"/>
<path d="M457.669 167.447C457.669 167.572 457.664 167.711 457.654 167.88C457.64 168.13 457.611 168.433 457.572 168.774C457.548 168.952 457.524 169.15 457.5 169.352C457.27 171.035 456.847 173.397 456.375 175.595C456.361 175.672 456.347 175.754 456.327 175.831C456.313 175.932 456.289 176.033 456.26 176.134C456.236 176.24 456.217 176.345 456.193 176.446C455.707 178.635 455.193 180.525 454.813 181.242C454.587 181.661 454.226 182.036 453.774 182.353C453.544 182.517 453.294 182.666 453.024 182.796C452.606 183.007 452.14 183.185 451.664 183.334C451.298 183.185 450.943 183.027 450.592 182.853C450.255 182.695 449.928 182.531 449.601 182.348C449.212 182.146 448.832 181.925 448.448 181.685H448.443C448.419 181.675 448.399 181.656 448.375 181.646C446.14 180.242 444.077 178.587 442.087 176.865C440.924 175.864 439.299 174.773 438.332 173.416C438.621 172.497 439.149 171.482 439.693 170.756C439.851 170.54 440.01 170.352 440.169 170.203C440.183 170.189 440.202 170.174 440.212 170.16C440.255 170.116 440.303 170.078 440.347 170.044C440.457 169.953 440.592 169.818 440.755 169.645C441.746 168.592 443.611 166.129 445.121 164.041C445.246 163.873 445.361 163.709 445.472 163.555C446.092 162.69 446.63 161.92 446.986 161.391C447.101 161.218 447.226 161.045 447.366 160.867C447.467 160.732 447.577 160.592 447.688 160.453C448.972 158.875 450.736 157.278 451.197 156.86C451.274 156.792 451.313 156.759 451.313 156.759C451.313 156.759 451.371 156.831 451.457 156.961C452.371 158.192 457.092 164.695 457.616 167.086C457.649 167.206 457.669 167.336 457.669 167.447Z" fill="#E6BCA8"/>
<path d="M438.837 212.007C437.841 211.82 426.289 218.722 424.981 223.378C423.678 228.035 431.875 240.031 433.178 244.754C434.481 249.478 438.663 254.634 440.207 256.996C441.75 259.358 442.524 260.7 442.524 260.7C442.524 260.7 449.577 257.617 451.625 256.996C453.673 256.376 455.351 253.49 455.351 253.49C455.351 253.49 447.284 234.139 447.779 231.556C448.274 228.973 447.779 224.307 447.779 224.307C447.779 224.307 471.005 216.664 470.351 216.476C469.707 216.293 438.837 212.007 438.837 212.007Z" fill="#485A7E"/>
<path d="M485.822 210.814C485.822 210.814 485.308 224.345 479.721 226.284C474.13 228.222 465.933 236.303 464.952 237.279C463.976 238.256 463.851 248.881 463.433 251.195C463.015 253.509 459.39 272.557 459.39 272.557C459.39 272.557 451.13 272.768 447.606 272.027C444.082 271.287 444.082 271.287 444.082 271.287C444.082 271.287 444.082 229.997 445.481 227.852C446.88 225.706 458.058 220.81 463.649 220.81C469.241 220.814 485.822 210.814 485.822 210.814Z" fill="#485A7E"/>
<path d="M444.183 259.377C444.178 259.377 444.178 259.377 444.174 259.377C444.02 259.372 443.9 259.242 443.904 259.088L444.818 234.48C444.823 234.326 444.948 234.201 445.106 234.211C445.26 234.215 445.38 234.345 445.375 234.499L444.462 259.108C444.457 259.257 444.332 259.377 444.183 259.377Z" fill="#232C44"/>
<path d="M490.557 168.587C490.557 168.75 490.557 168.909 490.553 169.077C490.514 171.53 490.255 174.426 489.928 177.158C489.904 177.36 489.884 177.562 489.856 177.755C489.259 182.56 488.481 186.735 488.346 187.029C488.269 187.197 487.394 186.99 486.173 186.591C482.99 185.571 477.447 183.32 477.447 183.32L477.668 181.372L477.731 180.819L478.832 171.175L478.904 170.53L479.808 162.593L479.875 162.007L480.577 155.85C480.577 155.85 480.654 155.888 480.793 155.955C480.836 155.984 480.894 156.013 480.957 156.037C480.995 156.061 481.033 156.08 481.082 156.105C482.12 156.648 484.591 158.029 486.726 159.847C486.904 159.996 487.081 160.155 487.255 160.318C488.428 161.386 489.442 162.589 489.976 163.849C490.404 164.84 490.567 166.542 490.557 168.587Z" fill="#E6BCA8"/>
<path d="M487.26 160.328C486.808 160.41 486.361 160.52 485.914 160.641C485.399 160.785 484.885 160.948 484.38 161.122C482.861 161.646 481.351 162.175 479.808 162.603C479.015 162.829 478.207 163.022 477.39 163.185C473.222 164.003 469.101 163.777 465.039 162.536C460.395 161.117 456.01 158.693 451.452 156.942C451.404 156.918 451.352 156.903 451.303 156.884C451.265 156.865 451.231 156.85 451.193 156.841C451.27 156.773 451.308 156.74 451.308 156.74C451.424 156.639 451.544 156.538 451.654 156.437C456.193 158.183 460.553 160.573 465.188 161.997C470.087 163.498 474.962 163.373 479.875 162.012C479.938 161.997 480 161.978 480.058 161.963C481.837 161.458 483.693 160.665 485.572 160.14C485.957 160.03 486.342 159.934 486.731 159.857C486.909 160.011 487.087 160.164 487.26 160.328Z" fill="white"/>
<path d="M490.558 168.587C490.558 168.75 490.558 168.909 490.553 169.077C490.457 169.082 490.361 169.092 490.269 169.106C489.245 169.231 488.236 169.405 487.226 169.611C485.438 169.962 483.668 170.405 481.875 170.766C480.866 170.968 479.851 171.102 478.827 171.184C474.914 171.507 470.942 171.102 467.029 170.896C464.64 170.766 462.154 170.799 459.827 170.208C459.015 170.001 458.241 169.698 457.486 169.352C456.366 168.832 455.289 168.207 454.197 167.63C453.106 167.048 451.991 166.509 450.856 166.028C448.981 165.229 447.058 164.561 445.101 164.027C445.226 163.858 445.342 163.695 445.452 163.541C447.351 164.07 449.217 164.719 451.029 165.494C451.741 165.797 452.438 166.114 453.13 166.456C454.611 167.182 456.044 168.077 457.553 168.779C458.332 169.15 459.13 169.462 459.967 169.674C462.414 170.29 465.039 170.232 467.543 170.367C471.37 170.573 475.13 170.852 478.89 170.544C480.356 170.429 481.817 170.222 483.289 169.886C484.615 169.582 485.928 169.308 487.245 169.082C488.356 168.88 489.457 168.717 490.558 168.587Z" fill="white"/>
<path d="M489.928 177.163C489.904 177.365 489.885 177.567 489.856 177.76C489.558 177.827 489.265 177.899 488.967 177.981C488.188 178.198 487.424 178.452 486.669 178.722C484.876 179.352 483.111 180.083 481.299 180.636C480.087 181.007 478.88 181.247 477.669 181.382C473.683 181.824 469.722 181.112 465.741 180.131C463.313 179.54 460.866 178.972 458.635 177.808C457.808 177.375 456.996 176.918 456.188 176.442C454.63 175.538 453.092 174.58 451.515 173.705C450.669 173.233 449.832 172.777 448.977 172.358C447.28 171.507 445.534 170.809 443.616 170.497C442.486 170.304 441.347 170.218 440.207 170.145C440.251 170.102 440.299 170.064 440.342 170.03C440.453 169.939 440.587 169.804 440.751 169.631C441.76 169.703 442.77 169.794 443.77 169.963C445.655 170.27 447.381 170.934 449.058 171.757C449.606 172.031 450.15 172.315 450.693 172.613C452.592 173.652 454.462 174.734 456.328 175.831C456.741 176.071 457.15 176.317 457.563 176.557C460.03 178.01 462.611 178.78 465.371 179.467C468.212 180.174 471.092 180.853 474.029 181.002C475.294 181.064 476.525 181.002 477.736 180.833C479.38 180.603 480.986 180.184 482.592 179.626C483.972 179.145 485.332 178.606 486.712 178.125C487.731 177.774 488.76 177.447 489.808 177.197C489.847 177.178 489.89 177.173 489.928 177.163Z" fill="white"/>
<path d="M486.014 187.779C485.985 187.962 485.966 188.154 485.937 188.337C481.702 188.52 477.447 188.962 473.236 188.933C468.812 188.904 464.625 188.082 460.361 186.966C458.106 186.37 455.856 185.797 453.572 185.311C452.587 185.104 451.577 184.859 450.558 184.681C450.572 184.508 450.582 184.33 450.591 184.157C451.096 184.239 451.596 184.34 452.101 184.441C454.505 184.917 456.894 185.475 459.264 186.095C463.899 187.312 468.413 188.342 473.236 188.375C477.471 188.404 481.755 187.962 486.014 187.779Z" fill="white"/>
<path d="M483.14 197.77C483.034 197.962 482.933 198.14 482.832 198.308C480.51 197.952 478.231 197.418 475.928 196.808C472.308 195.85 468.669 196.014 464.972 195.696C461.491 195.393 457.953 194.869 454.611 193.777C453.294 193.344 452.025 192.767 450.703 192.334C450.645 192.161 450.597 191.978 450.544 191.776C451.4 192.017 452.255 192.315 453.126 192.647C456.736 194.047 460.602 194.72 464.438 195.086C468.001 195.422 471.611 195.182 475.097 196.024C477.808 196.673 480.438 197.346 483.14 197.77Z" fill="white"/>
<path d="M450.976 181.795C450.962 181.795 450.952 181.795 450.937 181.79C450.784 181.771 450.678 181.627 450.697 181.473C450.712 181.377 452.048 171.636 451.687 169.679C451.327 167.711 448.697 162.281 448.668 162.223C448.601 162.084 448.659 161.915 448.798 161.848C448.937 161.78 449.106 161.838 449.173 161.978C449.284 162.204 451.865 167.533 452.24 169.578C452.615 171.627 451.312 181.146 451.255 181.55C451.236 181.694 451.115 181.795 450.976 181.795Z" fill="#D49D83"/>
<path d="M474.51 181.492C474.447 181.492 474.385 181.473 474.332 181.43C474.212 181.333 474.192 181.155 474.293 181.035C474.414 180.824 475.087 178.645 475.678 176.721C476.26 174.835 476.918 172.695 477.366 171.386C478.361 168.5 482.784 165.191 482.971 165.047C483.096 164.955 483.269 164.979 483.361 165.104C483.452 165.229 483.428 165.402 483.303 165.494C483.26 165.528 478.827 168.842 477.89 171.564C477.442 172.863 476.784 174.999 476.207 176.879C475.164 180.27 474.861 181.213 474.721 181.386C474.668 181.459 474.592 181.492 474.51 181.492Z" fill="#D49D83"/>
<path d="M455.385 194.994C455.298 194.994 455.212 194.956 455.159 194.879C455.106 194.807 453.899 193.142 453.197 191.632C452.606 190.357 452.341 189.169 452.24 188.722C452.221 188.65 452.212 188.597 452.207 188.573C452.164 188.428 452.245 188.27 452.389 188.222C452.539 188.173 452.692 188.25 452.74 188.4C452.75 188.428 452.764 188.496 452.788 188.602C452.885 189.034 453.139 190.179 453.707 191.401C454.38 192.863 455.596 194.537 455.611 194.552C455.702 194.677 455.673 194.85 455.548 194.941C455.5 194.975 455.442 194.994 455.385 194.994Z" fill="#D49D83"/>
<path d="M456.784 195.086C456.673 195.086 456.568 195.018 456.524 194.913L454.981 191.06C454.923 190.915 454.991 190.752 455.135 190.694C455.279 190.636 455.443 190.704 455.5 190.848L457.044 194.701C457.101 194.845 457.029 195.009 456.89 195.066C456.851 195.081 456.818 195.086 456.784 195.086Z" fill="#D49D83"/>
<path d="M472.572 147.875C472.509 147.875 472.447 147.851 472.394 147.812C472.317 147.745 472.279 147.644 472.298 147.543L473.207 142.79C473.226 142.689 473.303 142.608 473.399 142.574C473.5 142.545 473.606 142.569 473.678 142.646C473.731 142.704 475.009 144.027 474.731 145.571C474.452 147.124 472.745 147.827 472.673 147.855C472.644 147.865 472.61 147.875 472.572 147.875ZM473.644 143.493L472.961 147.076C473.418 146.788 474.048 146.254 474.187 145.474C474.327 144.686 473.952 143.945 473.644 143.493Z" fill="white"/>
<path d="M471.644 220.81H468.851V253.225H471.644V220.81Z" fill="#E6D6CF"/>
<path d="M472.481 242.888H468.01V267.953H472.481V242.888Z" fill="#232C44"/>
<path d="M365.159 244.552V286.01L368.322 284.605V244.253L365.159 244.552Z" fill="#6F8CD8"/>
<path d="M365.159 286.01L361.481 285.673V245.375L366.351 243.253C366.351 243.253 366.039 253.571 366.039 255.245C366.039 256.933 365.159 286.01 365.159 286.01Z" fill="#6F8CD8"/>
<path d="M362.179 207.231V248.689L370.419 245.245V204.893L362.179 207.231Z" fill="#6F8CD8"/>
<path d="M362.178 248.689L358.496 247.895V208.053L363.366 205.932C363.366 205.932 365.135 215.254 365.135 216.932C365.135 218.611 362.178 248.689 362.178 248.689Z" fill="#6F8CD8"/>
<path d="M343.38 292.09C343.592 292.23 350.226 295.202 350.226 295.202L388.212 278.088L380.058 276.058L343.38 292.09Z" fill="#6F8CD8"/>
<path d="M343.38 292.09V294.259L349.789 297.506L388.216 279.906V278.088L360.736 286.722L343.38 292.09Z" fill="#6F8CD8"/>
<path d="M349.919 295.928L343.789 292.792C343.65 292.72 343.597 292.552 343.669 292.417C343.741 292.278 343.909 292.225 344.044 292.297L349.933 295.313L387.193 278.29C387.332 278.227 387.5 278.285 387.563 278.429C387.625 278.569 387.563 278.737 387.423 278.8L349.919 295.928Z" fill="#485A7E"/>
<path d="M349.789 297.439C349.635 297.439 349.51 297.314 349.51 297.16V296.111C349.51 295.957 349.635 295.832 349.789 295.832C349.943 295.832 350.068 295.957 350.068 296.111V297.16C350.068 297.314 349.943 297.439 349.789 297.439Z" fill="#485A7E"/>
<path d="M362.981 287.593L361.202 286.679V285.678C361.202 285.524 361.327 285.399 361.481 285.399C361.635 285.399 361.76 285.524 361.76 285.678V286.337L363.01 286.977L368.044 284.976V282.754C368.044 282.6 368.169 282.475 368.323 282.475C368.476 282.475 368.601 282.6 368.601 282.754V285.356L362.981 287.593Z" fill="#485A7E"/>
<path d="M362.178 248.641C362.063 248.641 361.957 248.569 361.914 248.453C361.861 248.309 361.938 248.15 362.082 248.097L367.721 246.101C367.865 246.048 368.024 246.125 368.077 246.269C368.13 246.414 368.053 246.572 367.909 246.625L362.269 248.622C362.24 248.636 362.212 248.641 362.178 248.641Z" fill="#485A7E"/>
<path d="M362.995 286.289C362.842 286.289 362.717 286.164 362.717 286.01V249.073C362.717 248.92 362.842 248.794 362.995 248.794C363.149 248.794 363.274 248.92 363.274 249.073V286.01C363.274 286.164 363.149 286.289 362.995 286.289Z" fill="#485A7E"/>
<path d="M362.26 248.16C362.106 248.16 361.981 248.035 361.981 247.881V209.352C361.981 209.198 362.106 209.073 362.26 209.073C362.413 209.073 362.538 209.198 362.538 209.352V247.881C362.538 248.035 362.413 248.16 362.26 248.16Z" fill="#485A7E"/>
<path d="M490.515 267.136V308.598L494.077 307.03V266.679L490.515 267.136Z" fill="#6F8CD8"/>
<path d="M490.515 308.598L486.832 308.262V267.963L491.702 265.842C491.702 265.842 491.793 276.001 491.793 277.674C491.793 279.348 490.515 308.598 490.515 308.598Z" fill="#6F8CD8"/>
<path d="M473.25 235.812L468.13 234.321V229.362L476.139 227.044L473.25 235.812Z" fill="#6F8CD8"/>
<path d="M317.001 197.582V200.213L454.245 235.442L520.769 213.883V210.863L317.001 197.582Z" fill="#6F8CD8"/>
<path d="M317.001 197.582L454.048 231.936L520.769 210.863L388.558 182.94L317.001 197.582Z" fill="#E6D6CF"/>
<path d="M473.25 227.111V235.813L506.793 224.677V217.149L473.25 227.111Z" fill="#6F8CD8"/>
<path d="M487.529 229.819V271.277L496.173 267.67V227.318L487.529 229.819Z" fill="#6F8CD8"/>
<path d="M487.529 271.277L483.847 270.484V230.642L488.717 228.521C488.717 228.521 490.486 237.843 490.486 239.521C490.491 241.2 487.529 271.277 487.529 271.277Z" fill="#6F8CD8"/>
<path d="M466.986 316.338C467.197 316.477 473.832 319.45 473.832 319.45L513.971 300.517L505.817 298.488L466.986 316.338Z" fill="#6F8CD8"/>
<path d="M466.986 316.338V318.507L473.39 321.754L513.972 302.331V300.513L486.087 309.31L466.986 316.338Z" fill="#6F8CD8"/>
<path d="M473.529 320.181L467.395 317.04C467.255 316.968 467.202 316.8 467.274 316.665C467.346 316.525 467.515 316.473 467.649 316.545L473.534 319.556L512.942 300.715C513.082 300.647 513.25 300.705 513.317 300.845C513.385 300.984 513.327 301.152 513.188 301.215L473.529 320.181Z" fill="#485A7E"/>
<path d="M473.389 321.687C473.236 321.687 473.111 321.562 473.111 321.408V320.359C473.111 320.205 473.236 320.08 473.389 320.08C473.543 320.08 473.668 320.205 473.668 320.359V321.408C473.673 321.562 473.548 321.687 473.389 321.687Z" fill="#485A7E"/>
<path d="M488.332 310.177L486.553 309.263V308.262C486.553 308.108 486.678 307.983 486.832 307.983C486.986 307.983 487.111 308.108 487.111 308.262V308.921L488.361 309.561L493.798 307.401V305.179C493.798 305.025 493.923 304.9 494.077 304.9C494.231 304.9 494.356 305.025 494.356 305.179V307.781L488.332 310.177Z" fill="#485A7E"/>
<path d="M487.529 271.229C487.413 271.229 487.308 271.157 487.264 271.042C487.211 270.897 487.288 270.738 487.433 270.686L493.476 268.526C493.62 268.473 493.779 268.55 493.832 268.694C493.884 268.838 493.808 268.997 493.663 269.05L487.62 271.21C487.591 271.224 487.562 271.229 487.529 271.229Z" fill="#485A7E"/>
<path d="M488.346 308.877C488.192 308.877 488.067 308.752 488.067 308.598V271.662C488.067 271.508 488.192 271.383 488.346 271.383C488.5 271.383 488.625 271.508 488.625 271.662V308.598C488.625 308.752 488.5 308.877 488.346 308.877Z" fill="#485A7E"/>
<path d="M484.644 232.369C484.529 232.369 484.418 232.296 484.38 232.176C484.332 232.032 484.408 231.873 484.558 231.82L495.437 228.193C495.586 228.145 495.74 228.222 495.793 228.371C495.841 228.516 495.764 228.674 495.615 228.727L484.735 232.354C484.702 232.364 484.673 232.369 484.644 232.369Z" fill="#485A7E"/>
<path d="M487.61 270.743C487.457 270.743 487.332 270.618 487.332 270.464V231.935C487.332 231.781 487.457 231.656 487.61 231.656C487.764 231.656 487.889 231.781 487.889 231.935V270.464C487.889 270.618 487.764 270.743 487.61 270.743Z" fill="#485A7E"/>
<path d="M469.192 230.877C469.072 230.877 468.967 230.8 468.928 230.685C468.88 230.536 468.962 230.382 469.106 230.334L505.38 218.612C505.524 218.564 505.683 218.645 505.731 218.79C505.779 218.939 505.697 219.093 505.553 219.141L469.279 230.863C469.25 230.873 469.221 230.877 469.192 230.877Z" fill="#485A7E"/>
<path d="M473.25 235.235C473.096 235.235 472.971 235.11 472.971 234.956V230.026C472.971 229.872 473.096 229.747 473.25 229.747C473.404 229.747 473.529 229.872 473.529 230.026V234.956C473.529 235.11 473.404 235.235 473.25 235.235Z" fill="#485A7E"/>
<path d="M401.226 193.941C401.89 191.94 405.794 190.843 407.447 190.814C409.563 190.776 413.385 191.872 412.409 193.825C412.207 194.229 411.827 194.518 411.447 194.758C409.827 195.802 408.255 196.678 406.289 196.884C404.745 197.048 401.053 196.692 401.13 194.465C401.14 194.287 401.173 194.109 401.226 193.941Z" fill="#232C44"/>
<path d="M418.256 189.674L415.111 185.716C414.236 185.687 413.361 185.706 412.486 185.749C411.256 185.812 409.727 185.821 408.611 186.423C407.66 186.937 406.809 187.798 406.015 188.534C405.419 189.087 404.847 189.66 404.294 190.256C403.804 190.79 403.251 191.348 403.035 192.06C402.929 192.416 402.996 192.719 403.126 193.056C403.188 193.219 403.26 193.33 403.236 193.493C403.208 193.71 403.16 193.984 403.227 194.22C403.313 194.528 403.597 194.725 403.881 194.792C404.429 194.912 405.039 194.638 405.039 194.638C405.039 194.638 405.222 195.49 406.073 195.134C406.924 194.778 409.145 191.997 410.486 191.161C411.828 190.324 413.592 190.882 413.592 190.882C413.592 190.882 413.804 192.301 413.337 192.757C412.871 193.214 412.376 193.825 411.52 194.624C410.669 195.427 410.559 196.057 411.275 196.48C411.991 196.904 414.929 194.369 416.631 193.392C418.347 192.411 418.256 189.674 418.256 189.674Z" fill="#E99571"/>
<path d="M405.078 194.581C405.03 194.581 404.982 194.566 404.939 194.542C404.804 194.465 404.761 194.292 404.838 194.162C404.881 194.085 405.934 192.281 406.732 191.324C407.544 190.343 409.544 189.179 409.626 189.131C409.756 189.054 409.929 189.097 410.006 189.232C410.083 189.367 410.04 189.535 409.905 189.612C409.886 189.621 407.91 190.776 407.16 191.68C406.391 192.604 405.328 194.427 405.319 194.446C405.266 194.533 405.174 194.581 405.078 194.581Z" fill="#8F5238"/>
<path d="M403.554 193.2C403.496 193.2 403.434 193.181 403.381 193.142C403.261 193.046 403.236 192.873 403.333 192.748C403.405 192.652 405.136 190.434 405.986 189.52C406.852 188.592 408.294 187.668 408.352 187.63C408.482 187.548 408.655 187.587 408.736 187.717C408.818 187.846 408.78 188.02 408.65 188.101C408.636 188.111 407.208 189.03 406.39 189.905C405.559 190.8 403.785 193.07 403.77 193.094C403.722 193.162 403.64 193.2 403.554 193.2Z" fill="#8F5238"/>
<path d="M438.034 189.366C434.789 192.2 416.443 191.079 416.337 190.872L413.881 186.148C413.881 186.148 414.563 185.898 415.64 185.523C415.64 185.523 427.467 182.786 429.155 182.579C431.405 182.3 435.304 180.905 436.823 182.935C437.866 184.325 439.674 186.278 437.972 187.765C437.948 187.789 439.799 187.827 438.034 189.366Z" fill="#E99571"/>
<path d="M427.226 193.864L410.62 198.77C410.433 198.823 410.308 198.996 410.303 199.188C410.289 199.583 410.442 200.194 411.505 200.251C413.087 200.343 457.043 210.458 457.745 210.362C458.442 210.271 474.192 206.028 474.514 205.653C474.726 205.413 474.779 204.999 474.793 204.734C474.798 204.595 474.697 204.479 474.557 204.47L427.226 193.864Z" fill="#232C44"/>
<path d="M457.712 209.453C457.693 209.453 457.673 209.453 457.654 209.448L411.625 199.347C411.476 199.314 411.38 199.164 411.414 199.015C411.448 198.866 411.597 198.77 411.746 198.804L457.707 208.89L473.519 204.691C473.668 204.653 473.822 204.739 473.861 204.888C473.899 205.038 473.813 205.192 473.664 205.23L457.784 209.448C457.76 209.453 457.736 209.453 457.712 209.453Z" fill="#485A7E"/>
<path d="M369.684 214.013C369.66 214.013 369.636 214.009 369.616 214.004L359.054 211.291C358.905 211.252 358.814 211.098 358.852 210.949C358.89 210.8 359.044 210.709 359.193 210.747L369.756 213.46C369.905 213.499 369.996 213.653 369.958 213.802C369.919 213.932 369.809 214.013 369.684 214.013Z" fill="#485A7E"/>
<path d="M421.751 201.897C421.717 201.897 421.683 201.892 421.655 201.877C421.51 201.825 421.438 201.661 421.491 201.517L423.938 194.941C423.991 194.797 424.155 194.725 424.299 194.778C424.443 194.831 424.515 194.994 424.462 195.139L422.015 201.714C421.972 201.825 421.866 201.897 421.751 201.897Z" fill="#485A7E"/>
<path d="M424.39 202.839C424.356 202.839 424.323 202.835 424.294 202.82C424.15 202.767 424.073 202.604 424.131 202.459L427.106 194.398C427.159 194.253 427.323 194.181 427.467 194.234C427.611 194.287 427.688 194.451 427.63 194.595L424.655 202.657C424.611 202.767 424.501 202.839 424.39 202.839Z" fill="#485A7E"/>
<path d="M461.279 197.558C461.279 197.558 454.405 197.101 452.693 197.75C451.736 198.111 449.496 200.627 448.953 201.43C448.52 202.07 448.231 202.815 449.255 202.979C449.683 203.046 450.03 202.844 450.51 202.56C449.981 203.21 449.53 203.912 449.525 204.566C449.52 205.206 450.034 205.543 450.635 205.374C450.703 205.355 450.77 205.326 450.837 205.297C451.693 206.466 454.861 203.215 454.861 203.215C454.861 203.215 454.183 204.379 454.284 204.653C454.424 205.033 454.866 205.336 455.26 205.105C455.63 204.884 455.914 204.407 456.174 204.071C456.871 203.157 457.88 202.859 457.88 202.859C457.88 202.859 460.549 203.21 461.034 203.186C462.38 203.118 463.727 202.493 464.303 201.214C465.751 198.024 461.279 197.558 461.279 197.558Z" fill="#E99571"/>
<path d="M450.737 202.493C450.679 202.493 450.621 202.474 450.568 202.44C450.443 202.348 450.419 202.17 450.511 202.05C450.578 201.959 452.145 199.847 452.847 199.275C453.544 198.707 455.184 197.861 455.256 197.827C455.39 197.76 455.564 197.813 455.631 197.947C455.703 198.087 455.645 198.255 455.511 198.322C455.496 198.332 453.852 199.174 453.203 199.708C452.554 200.237 450.977 202.363 450.963 202.387C450.905 202.454 450.823 202.493 450.737 202.493Z" fill="#8F5238"/>
<path d="M450.977 204.879C450.924 204.879 450.871 204.864 450.823 204.831C450.693 204.744 450.659 204.571 450.746 204.441C450.799 204.359 452.097 202.402 453.26 201.209C454.448 199.997 456.664 199.107 456.76 199.068C456.905 199.011 457.068 199.083 457.126 199.222C457.183 199.367 457.111 199.53 456.967 199.588C456.943 199.597 454.765 200.473 453.659 201.603C452.53 202.753 451.222 204.73 451.212 204.749C451.155 204.836 451.068 204.879 450.977 204.879Z" fill="#8F5238"/>
<path d="M455.236 202.998C455.178 202.998 455.121 202.979 455.073 202.945C454.948 202.854 454.919 202.681 455.01 202.556C455.044 202.512 455.799 201.473 456.616 200.988C457.102 200.694 458.154 200.492 458.275 200.473C458.428 200.444 458.573 200.545 458.602 200.699C458.63 200.853 458.529 200.997 458.38 201.026C458.087 201.079 457.246 201.266 456.904 201.473C456.188 201.901 455.472 202.883 455.462 202.892C455.409 202.96 455.323 202.998 455.236 202.998Z" fill="#8F5238"/>
<path d="M434.26 189.005L434.698 188.789L430.116 155.065L379.126 145.893L378.664 146.268L434.26 189.005Z" fill="#232C44"/>
<path d="M377.722 146.989L378.664 146.268L429.587 155.542L434.26 189.005L432.933 189.602L377.722 146.989Z" fill="#485A7E"/>
<path d="M377.722 146.989L428.14 156.975L432.933 189.602L386.621 179.568L377.722 146.989Z" fill="#6F8CD8"/>
<path d="M358.948 209.607L356.395 208.467L364.814 189.606C364.992 189.207 365.343 188.919 365.766 188.818C366.189 188.717 366.636 188.818 366.972 189.092L373.929 194.763L382.116 171.723L384.751 172.66L375.9 197.567C375.746 197.995 375.395 198.322 374.958 198.447C374.52 198.568 374.049 198.471 373.698 198.183L366.621 192.415L358.948 209.607Z" fill="#232C44"/>
<path d="M404.947 220.647L402.394 219.507L410.812 200.646C410.98 200.271 411.302 199.987 411.697 199.872C412.091 199.756 412.514 199.824 412.86 200.05L420.48 205.1L428.076 184.205L430.701 185.163L422.499 207.727C422.355 208.131 422.028 208.443 421.624 208.578C421.216 208.713 420.773 208.655 420.413 208.414L412.692 203.297L404.947 220.647Z" fill="#232C44"/>
<path d="M353.621 207.437V205.095L360.044 203.724L367.943 205.581V207.437L361.549 209.179L353.621 207.437Z" fill="#232C44"/>
<path d="M359.482 206.168C359.328 206.168 359.169 206.144 359.006 206.086C358.52 205.918 358.203 205.648 358.059 205.283C357.843 204.739 358.117 204.2 358.126 204.176C358.198 204.042 358.367 203.989 358.501 204.056C358.636 204.128 358.689 204.297 358.621 204.431C358.617 204.441 358.453 204.773 358.578 205.076C358.66 205.283 358.867 205.441 359.189 205.552C360.222 205.913 361.073 204.196 361.083 204.181C361.15 204.042 361.318 203.984 361.458 204.051C361.597 204.119 361.655 204.287 361.588 204.426C361.544 204.508 360.718 206.168 359.482 206.168Z" fill="#485A7E"/>
<path d="M360.88 207.534L353.943 205.581C353.794 205.537 353.707 205.384 353.751 205.234C353.794 205.085 353.943 204.999 354.097 205.042L360.9 206.956L367.005 205.614C367.159 205.581 367.304 205.677 367.337 205.826C367.371 205.975 367.275 206.124 367.126 206.158L360.88 207.534Z" fill="#485A7E"/>
<path d="M353.621 209.319C353.467 209.319 353.342 209.193 353.342 209.04V207.154C353.342 207 353.467 206.875 353.621 206.875C353.775 206.875 353.9 207 353.9 207.154V209.04C353.9 209.193 353.775 209.319 353.621 209.319Z" fill="#485A7E"/>
<path d="M361.049 211.16C360.895 211.16 360.77 211.035 360.77 210.881V207.947C360.77 207.793 360.895 207.668 361.049 207.668C361.203 207.668 361.328 207.793 361.328 207.947V210.881C361.328 211.035 361.203 211.16 361.049 211.16Z" fill="#485A7E"/>
<path d="M399.419 218.347V216.115L405.842 214.633L413.746 216.49V218.347L406.583 220.574L399.419 218.347Z" fill="#232C44"/>
<path d="M406.679 218.438L399.741 216.591C399.592 216.553 399.506 216.399 399.544 216.25C399.582 216.101 399.731 216.009 399.885 216.052L406.693 217.861L412.799 216.519C412.953 216.485 413.097 216.582 413.13 216.731C413.164 216.88 413.068 217.029 412.919 217.063L406.679 218.438Z" fill="#485A7E"/>
<path d="M399.419 220.867C399.265 220.867 399.14 220.742 399.14 220.588V218.703C399.14 218.549 399.265 218.424 399.419 218.424C399.573 218.424 399.698 218.549 399.698 218.703V220.588C399.698 220.742 399.573 220.867 399.419 220.867Z" fill="#485A7E"/>
<path d="M406.851 222.859C406.698 222.859 406.573 222.734 406.573 222.58V219.035C406.573 218.881 406.698 218.756 406.851 218.756C407.005 218.756 407.13 218.881 407.13 219.035V222.58C407.13 222.734 407.005 222.859 406.851 222.859Z" fill="#485A7E"/>
<path d="M405.506 217.029C405.352 217.029 405.193 217.005 405.03 216.947C404.544 216.779 404.227 216.509 404.083 216.144C403.866 215.6 404.141 215.061 404.15 215.037C404.222 214.903 404.391 214.85 404.525 214.917C404.66 214.989 404.713 215.158 404.645 215.292C404.641 215.302 404.477 215.634 404.602 215.937C404.684 216.144 404.891 216.302 405.213 216.413C406.246 216.769 407.097 215.057 407.107 215.042C407.174 214.903 407.342 214.845 407.482 214.912C407.621 214.98 407.679 215.148 407.612 215.288C407.564 215.369 406.741 217.029 405.506 217.029Z" fill="#485A7E"/>
<path d="M382.823 175.956L430.53 185.605L429.275 175.72L381.15 166.816L382.823 175.956Z" fill="#232C44"/>
<path d="M381.15 166.816L382.828 165.763L430.813 174.479L432.14 184.426L430.525 185.605C430.525 185.605 412.376 176.759 411.116 176.48C409.861 176.201 381.15 166.816 381.15 166.816Z" fill="#232C44"/>
<path d="M429.049 176.321L428.9 176.292L381.722 167.36C381.568 167.331 381.472 167.187 381.501 167.033C381.53 166.879 381.679 166.783 381.828 166.812L428.856 175.715L429.914 174.609C430.02 174.498 430.198 174.493 430.308 174.599C430.419 174.705 430.424 174.883 430.318 174.993L429.049 176.321Z" fill="#485A7E"/>
<path d="M428.14 184.724C428.106 184.724 428.072 184.72 428.044 184.705C427.899 184.652 427.827 184.489 427.88 184.344L430.52 177.274C430.573 177.129 430.736 177.057 430.88 177.11C431.024 177.163 431.097 177.327 431.044 177.471L428.404 184.542C428.361 184.652 428.255 184.724 428.14 184.724Z" fill="#485A7E"/>
<path d="M430.779 184.96C430.75 184.96 430.717 184.955 430.683 184.946C430.539 184.893 430.462 184.734 430.515 184.59L431.26 182.497C431.313 182.353 431.471 182.276 431.616 182.329C431.76 182.382 431.837 182.541 431.784 182.685L431.039 184.777C431.005 184.888 430.895 184.96 430.779 184.96Z" fill="#485A7E"/>
<path d="M429.462 180.28C429.327 180.28 429.212 180.183 429.188 180.049C428.573 176.412 428.573 176.35 428.573 176.321C428.573 176.167 428.698 176.042 428.851 176.042C429.001 176.042 429.121 176.157 429.13 176.302C429.15 176.465 429.505 178.572 429.741 179.957C429.765 180.111 429.664 180.256 429.51 180.28C429.491 180.275 429.477 180.28 429.462 180.28ZM429.126 176.316H429.13H429.126Z" fill="#485A7E"/>
<path d="M431.082 181.251C431.111 180.722 430.995 180.289 430.827 180.28C430.659 180.27 430.5 180.693 430.476 181.218C430.447 181.747 430.563 182.18 430.731 182.189C430.899 182.194 431.053 181.776 431.082 181.251Z" fill="#485A7E"/>
<path d="M383.005 176.634C382.875 176.634 382.76 176.543 382.731 176.413L382.077 173.43C382.043 173.281 382.14 173.132 382.289 173.099C382.438 173.065 382.587 173.161 382.62 173.31L383.274 176.292C383.308 176.442 383.212 176.591 383.063 176.624C383.043 176.629 383.024 176.634 383.005 176.634Z" fill="#485A7E"/>
<path d="M425.168 182.247L387.558 174.753L386.731 170.77L424.649 178.187L425.168 182.247ZM388.029 174.282L424.515 181.55L424.149 178.664L387.452 171.487L388.029 174.282Z" fill="#485A7E"/>
<path d="M430.53 173.651C430.395 173.651 430.275 173.55 430.256 173.416L427.621 156.345L429.28 155.604C429.419 155.541 429.587 155.604 429.65 155.743C429.712 155.883 429.65 156.051 429.511 156.114L428.246 156.681L430.818 173.334C430.842 173.488 430.736 173.627 430.583 173.651C430.559 173.647 430.539 173.651 430.53 173.651Z" fill="#232C44"/>
<path d="M427.087 156.696C427.068 156.696 427.053 156.696 427.034 156.691L378.073 147.461C377.919 147.432 377.823 147.288 377.852 147.134C377.881 146.98 378.03 146.883 378.179 146.912L427.14 156.143C427.294 156.172 427.39 156.316 427.361 156.47C427.337 156.6 427.217 156.696 427.087 156.696Z" fill="#232C44"/>
<path d="M432.842 189.284C432.708 189.284 432.592 189.188 432.568 189.054L431.866 185.104C431.837 184.95 431.938 184.806 432.092 184.782C432.246 184.753 432.39 184.854 432.414 185.008L433.116 188.957C433.145 189.111 433.044 189.256 432.89 189.28C432.876 189.284 432.861 189.284 432.842 189.284Z" fill="#232C44"/>
<path d="M426.64 164.892C426.506 164.892 426.385 164.791 426.366 164.652L425.457 158.456C425.433 158.302 425.539 158.163 425.693 158.139C425.842 158.115 425.986 158.221 426.01 158.375L426.919 164.57C426.943 164.724 426.837 164.863 426.683 164.887C426.669 164.892 426.655 164.892 426.64 164.892Z" fill="#232C44"/>
<path d="M425.298 164.748C425.164 164.748 425.044 164.647 425.024 164.508L424.116 158.312C424.092 158.159 424.197 158.019 424.351 157.995C424.5 157.971 424.645 158.077 424.669 158.231L425.577 164.426C425.601 164.58 425.495 164.719 425.342 164.744C425.322 164.748 425.308 164.748 425.298 164.748Z" fill="#232C44"/>
<path d="M423.953 164.464C423.818 164.464 423.698 164.363 423.679 164.224L422.77 158.028C422.746 157.874 422.852 157.735 423.006 157.711C423.155 157.687 423.299 157.793 423.323 157.947L424.232 164.142C424.256 164.296 424.15 164.435 423.996 164.459C423.977 164.464 423.962 164.464 423.953 164.464Z" fill="#232C44"/>
<path d="M422.606 164.137C422.472 164.137 422.352 164.036 422.332 163.897L421.424 157.701C421.4 157.547 421.505 157.408 421.659 157.384C421.803 157.355 421.952 157.466 421.977 157.619L422.885 163.815C422.909 163.969 422.803 164.108 422.65 164.132C422.63 164.137 422.621 164.137 422.606 164.137Z" fill="#232C44"/>
<path d="M421.261 163.906C421.126 163.906 421.006 163.805 420.987 163.666L420.078 157.471C420.054 157.317 420.16 157.177 420.314 157.153C420.458 157.129 420.607 157.235 420.631 157.389L421.539 163.584C421.564 163.738 421.458 163.878 421.304 163.902C421.289 163.902 421.275 163.906 421.261 163.906Z" fill="#232C44"/>
<path d="M410.779 171.41C410.645 171.41 410.529 171.314 410.505 171.179L409.606 165.999L395.481 163.204C396.534 168.606 396.491 168.726 396.467 168.808C396.419 168.952 396.26 169.034 396.116 168.986C395.991 168.943 395.914 168.822 395.924 168.697C395.9 168.351 395.26 164.974 394.856 162.901C394.837 162.81 394.866 162.713 394.933 162.651C395.001 162.584 395.092 162.555 395.183 162.574L409.904 165.489C410.02 165.513 410.106 165.6 410.126 165.715L411.058 171.083C411.087 171.237 410.981 171.381 410.832 171.405C410.813 171.41 410.794 171.41 410.779 171.41Z" fill="#232C44"/>
<path d="M384.77 158.856C384.746 158.856 384.722 158.851 384.693 158.846L382.597 158.264C382.501 158.235 382.424 158.158 382.4 158.062L380.362 149.914C380.338 149.818 380.366 149.722 380.434 149.649C380.501 149.582 380.602 149.548 380.693 149.572L382.804 150.053C382.91 150.078 382.986 150.159 383.015 150.26L385.035 158.51C385.059 158.606 385.03 158.707 384.958 158.779C384.914 158.827 384.842 158.856 384.77 158.856ZM382.91 157.764L384.386 158.173L382.52 150.554L381.02 150.212L382.91 157.764Z" fill="#232C44"/>
<path d="M404.975 165.075C404.841 165.075 404.725 164.979 404.701 164.84L404.485 163.527L400.538 162.752L400.716 163.806C400.74 163.959 400.639 164.104 400.485 164.128C400.336 164.152 400.187 164.051 400.163 163.897L399.918 162.444C399.903 162.353 399.932 162.262 399.999 162.199C400.067 162.136 400.158 162.108 400.249 162.127L404.783 163.017C404.898 163.041 404.985 163.132 405.004 163.248L405.254 164.748C405.278 164.902 405.177 165.047 405.023 165.071C405.004 165.075 404.99 165.075 404.975 165.075Z" fill="#232C44"/>
<path d="M459.231 198.505C459.231 198.505 470.525 193.282 473.145 192.32C475.376 191.502 478.001 189.814 480.034 191.521C481.736 192.95 481.606 195.456 480.082 197.168C479.27 198.087 478.226 198.751 477.068 199.164C472.164 200.915 467.472 200.992 462.472 202.45L459.231 198.505Z" fill="#E99571"/>
<path d="M473.25 192.82L476.947 183.368L486.173 186.601L481.067 195.441L473.25 192.82Z" fill="#E99571"/>
<path d="M497.01 197.683C496.952 197.683 496.889 197.664 496.841 197.625C496.707 197.524 496.034 196.98 496.034 196.403C496.034 195.99 496.75 190.477 497.711 189.621C498.495 188.924 499.428 189.174 499.812 189.405C499.947 189.486 499.99 189.655 499.909 189.789C499.832 189.924 499.659 189.963 499.529 189.886C499.495 189.866 498.755 189.448 498.086 190.04C497.375 190.67 496.596 195.85 496.596 196.403C496.596 196.625 496.947 197 497.183 197.178C497.308 197.269 497.332 197.447 497.236 197.567C497.178 197.644 497.096 197.683 497.01 197.683Z" fill="#BF4C33"/>
<path d="M483.697 199.597C483.664 199.597 483.63 199.593 483.596 199.578C483.452 199.52 483.38 199.362 483.438 199.217C483.481 199.107 484.534 196.476 487.952 195.451C490.577 194.662 495.37 195.581 495.577 195.619C495.726 195.648 495.827 195.797 495.798 195.947C495.769 196.1 495.615 196.197 495.471 196.168C495.423 196.158 490.615 195.235 488.116 195.985C484.971 196.933 483.971 199.395 483.962 199.419C483.918 199.53 483.808 199.597 483.697 199.597Z" fill="#BF4C33"/>
<path d="M470.346 267.299C469.154 267.299 468.288 266.318 467.976 265.731C467.904 265.596 467.952 265.428 468.091 265.351C468.226 265.279 468.394 265.327 468.471 265.467C468.505 265.529 469.327 267.015 470.726 266.698C472.135 266.38 472.322 264.36 472.327 264.341C472.341 264.187 472.49 264.076 472.63 264.086C472.784 264.1 472.899 264.235 472.885 264.389C472.875 264.49 472.659 266.837 470.851 267.246C470.673 267.28 470.505 267.299 470.346 267.299Z" fill="#485A7E"/>
<path d="M442.995 214.211V225.279L450.259 227.318L457.197 225.409V214.235L449.144 212.724L442.995 214.211Z" fill="white"/>
<path d="M445.688 215.346L444.491 215.096L444.361 214.5L443.322 209.661C443.26 209.353 443.457 209.064 443.76 209.002C444.067 208.939 444.356 209.141 444.418 209.444L445.558 214.759L445.688 215.346Z" fill="#232C44"/>
<path d="M455.669 207.202L455.26 214.6L455.231 215.178L454.097 215.418L454.13 214.841L454.553 207.121C454.577 206.813 454.842 206.577 455.15 206.601C455.462 206.63 455.693 206.895 455.669 207.202Z" fill="#DE684E"/>
<path d="M453.044 210.286L452.775 215.134L452.741 215.711L451.606 215.957L451.64 215.38L451.924 210.199C451.948 209.891 452.212 209.66 452.52 209.684C452.832 209.708 453.068 209.973 453.044 210.286Z" fill="#485A7E"/>
<path d="M456.836 214.831L455.23 215.177L454.096 215.418L452.735 215.707L451.6 215.952L450.091 216.274L445.682 215.341L444.485 215.091L443.245 214.826C443.096 214.797 443 214.648 443.033 214.494C443.067 214.345 443.216 214.249 443.365 214.283L444.36 214.49L445.557 214.745L450.096 215.702L451.639 215.37L452.774 215.125L454.134 214.836L455.264 214.595L456.73 214.283C456.879 214.249 457.028 214.345 457.062 214.494C457.091 214.653 456.995 214.807 456.836 214.831Z" fill="#F2E2DA"/>
<path d="M450.298 227.005C450.144 227.005 450.024 226.885 450.019 226.731L449.817 216.515C449.812 216.361 449.937 216.231 450.091 216.231C450.231 216.221 450.375 216.351 450.375 216.505L450.577 226.722C450.582 226.876 450.457 227.005 450.303 227.005C450.298 227.005 450.298 227.005 450.298 227.005Z" fill="#F2E2DA"/>
<path d="M375.236 201.685C375.649 201.685 384.952 210.262 385.125 210.507C385.293 210.752 408.51 204.841 408.51 204.841L397.716 196.582C397.361 196.308 396.899 196.216 396.462 196.327L375.236 201.685Z" fill="white"/>
<path d="M375.236 201.685C375.236 201.685 375.024 202.065 375.654 202.772C376.289 203.479 384.082 211.325 385.101 211.325C386.125 211.325 407.318 206.096 407.827 205.779C408.337 205.461 408.505 204.841 408.505 204.841L375.236 201.685Z" fill="white"/>
<path d="M385.299 210.401C385.227 210.401 385.159 210.372 385.106 210.324L376.746 202.306C376.674 202.233 376.645 202.128 376.669 202.031C376.693 201.93 376.775 201.858 376.871 201.834L395.029 197.414C395.116 197.395 395.203 197.414 395.27 197.467L404.885 205.158C404.967 205.225 405.005 205.331 404.981 205.437C404.957 205.543 404.88 205.625 404.775 205.649L385.366 210.396C385.342 210.401 385.323 210.401 385.299 210.401ZM377.501 202.258L385.385 209.814L404.097 205.24L395.034 197.991L377.501 202.258Z" fill="#F2E2DA"/>
<path d="M400.669 200.997C400.371 200.997 400.034 200.815 399.77 200.478C399.38 199.987 399.342 199.41 399.683 199.146C400.025 198.876 400.573 199.045 400.962 199.535C401.352 200.026 401.39 200.603 401.049 200.868C400.938 200.954 400.808 200.997 400.669 200.997ZM400.063 199.574C400.049 199.574 400.034 199.579 400.029 199.583C399.991 199.612 399.991 199.857 400.207 200.132C400.424 200.406 400.664 200.464 400.703 200.43C400.741 200.401 400.741 200.156 400.525 199.882C400.342 199.651 400.145 199.574 400.063 199.574Z" fill="#F2E2DA"/>
<path d="M378.856 196.332C378.856 196.332 380.039 195.61 380.342 195.576L396.799 193.397C397.106 193.364 397.38 193.58 397.419 193.888C397.452 194.196 397.236 194.47 396.928 194.509L380.472 196.688C380.376 196.697 378.856 196.332 378.856 196.332Z" fill="white"/>
<path d="M351.553 191.026C351.548 191.108 351.548 191.189 351.548 191.271V191.584C351.548 194.494 351.538 196.485 349.322 198.121H338.269C335.976 196.428 335.755 194.042 335.755 190.968C335.755 190.603 335.745 190.237 335.731 189.871C335.731 189.621 335.726 189.376 335.721 189.126V189.121C335.692 187.346 335.779 185.643 336.88 184.417H350.716C352.144 186.014 351.586 188.693 351.553 191.026Z" fill="#E6BCA8"/>
<path d="M350.716 184.47C350.716 185.153 347.62 185.706 343.798 185.706C339.976 185.706 336.88 185.153 336.88 184.47C336.88 183.787 339.976 183.234 343.798 183.234C347.62 183.234 350.716 183.787 350.716 184.47Z" fill="#E6BCA8"/>
<path d="M343.798 199.362C346.849 199.362 349.322 198.808 349.322 198.126C349.322 197.443 346.849 196.89 343.798 196.89C340.747 196.89 338.274 197.443 338.274 198.126C338.274 198.808 340.747 199.362 343.798 199.362Z" fill="#E6BCA8"/>
<path d="M349.322 184.47C349.322 184.811 348.005 185.109 346.101 185.239C345.899 185.259 345.692 185.268 345.481 185.278C345.303 185.283 345.125 185.292 344.937 185.302C344.755 185.307 344.567 185.312 344.38 185.312C344.24 185.316 344.096 185.316 343.947 185.316H343.798C343.654 185.316 343.514 185.316 343.375 185.312H343.264C343.12 185.312 342.976 185.307 342.832 185.307C342.759 185.302 342.687 185.302 342.62 185.302C342.38 185.292 342.149 185.278 341.928 185.268C339.798 185.153 338.279 184.835 338.279 184.47C338.279 184.205 339.067 183.965 340.303 183.811C340.538 183.782 340.784 183.753 341.048 183.734C341.288 183.71 341.543 183.695 341.808 183.676C342.009 183.666 342.211 183.652 342.423 183.647C342.615 183.638 342.803 183.633 343 183.633C343.183 183.628 343.375 183.623 343.572 183.623H343.808C344.043 183.623 344.279 183.623 344.5 183.628C344.692 183.633 344.88 183.638 345.058 183.642C345.457 183.652 345.841 183.676 346.197 183.705C346.404 183.719 346.61 183.739 346.803 183.753C348.317 183.902 349.322 184.167 349.322 184.47Z" fill="#6B3939"/>
<path d="M343.735 198.943C341.336 198.943 338.87 198.357 338.754 198.328C338.605 198.289 338.514 198.14 338.547 197.991C338.581 197.842 338.73 197.746 338.884 197.784C338.913 197.794 341.975 198.515 344.509 198.361C347.062 198.203 348.451 197.861 348.466 197.856C348.615 197.818 348.769 197.909 348.807 198.058C348.845 198.207 348.754 198.361 348.605 198.395C348.547 198.409 347.153 198.751 344.547 198.915C344.273 198.934 344.004 198.943 343.735 198.943Z" fill="#D49D83"/>
<path d="M342.697 187.072C338.707 187.072 336.822 185.995 336.736 185.947C336.601 185.87 336.558 185.696 336.635 185.567C336.712 185.432 336.885 185.389 337.014 185.466C337.038 185.48 339.288 186.745 344.014 186.476C348.779 186.202 350.582 185.456 350.601 185.451C350.74 185.393 350.909 185.456 350.966 185.6C351.029 185.74 350.961 185.908 350.822 185.966C350.745 185.999 348.933 186.759 344.048 187.038C343.577 187.063 343.125 187.072 342.697 187.072Z" fill="#D49D83"/>
<path d="M337.567 191.122C336.889 190.8 336.298 190.352 335.735 189.876C335.735 189.626 335.731 189.381 335.726 189.131C336.384 189.703 337.062 190.256 337.856 190.636C338.178 190.79 337.889 191.271 337.567 191.122Z" fill="white"/>
<path d="M341.178 191.016C340.438 190.761 339.779 190.362 339.207 189.828C338.942 189.583 338.548 189.977 338.813 190.223C339.457 190.824 340.197 191.271 341.029 191.555C341.365 191.675 341.514 191.132 341.178 191.016Z" fill="white"/>
<path d="M344.668 191.502C343.841 191.392 343.101 191.06 342.481 190.497C342.216 190.257 341.817 190.651 342.086 190.891C342.774 191.512 343.601 191.916 344.519 192.041C344.875 192.089 345.024 191.55 344.668 191.502Z" fill="white"/>
<path d="M347.716 191.348C346.788 191.108 345.87 190.853 345.038 190.357C344.73 190.175 344.447 190.656 344.755 190.838C345.625 191.358 346.591 191.632 347.567 191.887C347.918 191.978 348.067 191.44 347.716 191.348Z" fill="white"/>
<path d="M351.553 191.026C351.548 191.108 351.548 191.19 351.548 191.271V191.584C350.442 191.445 349.384 191.132 348.36 190.66C348.038 190.511 348.322 190.03 348.644 190.179C349.572 190.612 350.548 190.896 351.553 191.026Z" fill="white"/>
<path d="M353.846 178.866C353.438 178.015 352.217 178.438 351.471 178.549C350.712 178.664 349.991 178.861 349.332 179.184C349.395 178.669 349.471 178.149 349.596 177.625C349.866 176.48 350.871 174.859 350.976 173.464C351.529 172.007 352.26 170.521 350.794 169.241C349.558 168.164 347.597 168.51 346.871 169.987C346.399 170.949 346.794 172.069 346.496 173.075C346.202 174.056 346.14 174.826 346.097 175.865C346.015 177.76 344.414 178.549 343.491 179.876C343.409 179.491 343.308 179.107 343.207 178.722C343.164 178.549 343.726 177.577 343.774 177.288C343.861 176.778 343.837 176.259 343.827 175.749C343.798 174.585 343.981 173.541 344.183 172.401C344.202 172.286 344.226 172.17 344.27 172.065C344.409 171.713 344.726 171.463 344.89 171.127C345.087 170.718 345.193 170.246 345.217 169.794C345.991 168.462 346.039 165.812 344.246 165.436C343.419 165.263 342.332 165.874 341.895 166.562C341.25 167.577 341.505 168.967 341.592 170.117C341.385 170.92 341.063 171.656 340.635 172.334C340.491 171.911 340.265 171.516 339.904 171.16C339.337 170.602 338.409 170.112 337.616 170.511C336.823 170.915 336.746 171.887 336.818 172.661C336.962 174.186 337.385 175.634 337.957 177.043C338.274 177.817 338.135 178.332 337.948 178.905C336.51 177.582 334.462 176.326 333.577 178.231C333.049 179.376 333.957 180.16 334.818 180.723C336.121 181.579 337.582 182.07 338.89 182.897C339.361 183.455 339.919 183.95 340.467 184.422C340.601 184.537 341.087 184.595 341.274 184.657C342.395 185.023 343.601 185.1 344.755 184.869C344.991 184.821 345.226 184.763 345.467 184.773C345.678 184.782 345.88 184.85 346.092 184.869C346.611 184.922 347.111 184.475 347.524 184.21C348.024 183.888 348.371 183.45 348.597 182.897C348.645 182.781 348.678 182.671 348.717 182.555C350.106 182.122 351.697 182.046 352.88 181.257C353.596 180.805 354.274 179.761 353.846 178.866Z" fill="#44A48D"/>
<path d="M342.456 178.433C341.807 178.193 341.485 178.111 341.331 177.366C341.278 177.111 341.23 176.899 341.12 176.663C340.846 176.081 340.519 175.735 340.519 175.033C340.519 174.441 340.687 173.83 340.793 173.248C340.855 172.897 340.317 172.743 340.254 173.099C340.12 173.825 339.894 174.624 339.971 175.374C340.033 175.99 340.355 176.375 340.605 176.918C340.812 177.37 340.74 177.991 341.043 178.405C341.365 178.837 341.841 178.799 342.312 178.972C342.649 179.097 342.793 178.558 342.456 178.433Z" fill="#456664"/>
<path d="M339.169 181.843C338.741 181.233 338.284 180.357 338.212 179.612C338.178 179.256 337.621 179.251 337.654 179.612C337.731 180.463 338.202 181.435 338.688 182.127C338.89 182.421 339.375 182.142 339.169 181.843Z" fill="#456664"/>
<path d="M343.121 180.314C342.428 181.512 342.236 182.858 342.563 184.205C342.649 184.556 343.188 184.407 343.101 184.056C342.808 182.854 342.986 181.666 343.601 180.598C343.784 180.285 343.298 180.006 343.121 180.314Z" fill="#456664"/>
<path d="M348.721 179.583C348.216 180.501 347.807 181.521 348.216 182.555C348.346 182.887 348.889 182.743 348.755 182.406C348.399 181.507 348.769 180.655 349.202 179.862C349.38 179.549 348.894 179.265 348.721 179.583Z" fill="#456664"/>
<path d="M348.264 170.266C348.12 170.732 347.976 171.194 347.837 171.661C347.731 172.007 348.269 172.151 348.375 171.81C348.519 171.343 348.663 170.882 348.803 170.415C348.909 170.069 348.37 169.924 348.264 170.266Z" fill="#456664"/>
<path d="M349.168 172.45C349.067 172.777 348.971 173.109 348.87 173.436C348.765 173.782 349.308 173.926 349.409 173.585C349.51 173.258 349.606 172.926 349.707 172.599C349.808 172.252 349.269 172.103 349.168 172.45Z" fill="#456664"/>
<path d="M347.586 176.086C347.514 176.365 347.447 176.649 347.375 176.928C347.288 177.279 347.827 177.428 347.913 177.077C347.986 176.793 348.053 176.514 348.125 176.23C348.211 175.884 347.673 175.735 347.586 176.086Z" fill="#456664"/>
<path d="M345.125 181.261C345.034 181.526 344.942 181.791 344.846 182.055C344.726 182.397 345.269 182.541 345.385 182.204C345.476 181.94 345.567 181.675 345.664 181.411C345.784 181.069 345.24 180.92 345.125 181.261Z" fill="#456664"/>
<path d="M343.404 167.279C343.351 167.534 343.269 167.769 343.149 168.005C342.985 168.323 343.466 168.606 343.63 168.289C343.769 168.015 343.875 167.731 343.937 167.433C344.019 167.077 343.481 166.928 343.404 167.279Z" fill="#456664"/>
<path d="M343.346 169.684C343.231 169.915 343.14 170.15 343.077 170.4C342.986 170.751 343.529 170.896 343.616 170.549C343.669 170.347 343.736 170.155 343.827 169.967C343.986 169.645 343.505 169.361 343.346 169.684Z" fill="#456664"/>
<path d="M338.678 171.94C338.62 171.584 338.077 171.738 338.14 172.089C338.192 172.397 338.245 172.709 338.298 173.017C338.356 173.373 338.899 173.219 338.837 172.868C338.784 172.56 338.731 172.248 338.678 171.94Z" fill="#456664"/>
<path d="M340.395 180.237C340.313 179.891 340.197 179.559 340.053 179.232C339.909 178.9 339.428 179.188 339.572 179.515C339.693 179.794 339.784 180.088 339.856 180.386C339.943 180.737 340.481 180.588 340.395 180.237Z" fill="#456664"/>
<path d="M341.322 180.102C341.202 179.766 340.663 179.91 340.783 180.251C340.846 180.429 340.879 180.593 340.884 180.78C340.894 181.141 341.452 181.141 341.442 180.78C341.437 180.54 341.399 180.323 341.322 180.102Z" fill="#456664"/>
<path d="M335.86 179.136C335.687 178.967 335.514 178.799 335.341 178.631C335.082 178.38 334.687 178.775 334.947 179.025L335.466 179.53C335.726 179.78 336.12 179.386 335.86 179.136Z" fill="#456664"/>
<path d="M351.909 179.414C351.726 179.616 351.573 179.833 351.438 180.073C351.26 180.386 351.746 180.67 351.919 180.357C352.029 180.16 352.154 179.982 352.303 179.814C352.544 179.54 352.15 179.145 351.909 179.414Z" fill="#456664"/>
<path d="M366.967 190.757C366.967 191.392 366.708 191.911 366.386 191.911C366.064 191.911 365.804 191.396 365.804 190.757C365.804 190.122 366.064 189.602 366.386 189.602C366.708 189.602 366.967 190.117 366.967 190.757Z" fill="#485A7E"/>
<path d="M375.145 196.428C375.145 197.062 374.886 197.582 374.564 197.582C374.241 197.582 373.982 197.067 373.982 196.428C373.982 195.793 374.241 195.273 374.564 195.273C374.886 195.273 375.145 195.793 375.145 196.428Z" fill="#485A7E"/>
<path d="M412.991 201.618C412.991 202.253 412.731 202.772 412.409 202.772C412.087 202.772 411.827 202.257 411.827 201.618C411.827 200.983 412.087 200.463 412.409 200.463C412.731 200.463 412.991 200.978 412.991 201.618Z" fill="#485A7E"/>
<path d="M421.75 206.87C421.75 207.505 421.491 208.025 421.169 208.025C420.847 208.025 420.587 207.51 420.587 206.87C420.587 206.235 420.847 205.716 421.169 205.716C421.491 205.716 421.75 206.235 421.75 206.87Z" fill="#485A7E"/>
</g>
</svg>
