<svg width="56" height="35" viewBox="0 0 56 35" fill="none" xmlns="http://www.w3.org/2000/svg">
<path d="M0.896484 27.9558H1.78027C2.2749 24.4881 5.24478 21.9117 8.74782 21.9117C12.2503 21.9117 15.2202 24.4881 15.7148 27.9558H32.4901V0H0.896484V27.9558Z" fill="white"/>
<path d="M34.4096 5.75524V12.8812H50.0973L46.5059 7.50676C45.7838 6.41206 44.559 5.75363 43.2475 5.75524H34.4096Z" fill="white"/>
<path d="M13.8672 28.9122C13.8672 31.7402 11.5745 34.0329 8.74699 34.0329C5.91897 34.0329 3.62679 31.7402 3.62679 28.9122C3.62679 26.0847 5.91897 23.792 8.74699 23.792C11.5745 23.792 13.8672 26.0847 13.8672 28.9122Z" fill="white"/>
<path d="M51.709 14.8001H34.4096V27.9557H38.7472C39.2418 24.4875 42.2116 21.9111 45.7147 21.9111C49.2177 21.9111 52.1876 24.4875 52.6817 27.9557H55.1023V19.7302C55.1039 18.6746 54.6762 17.664 53.9182 16.9295L51.709 14.8001Z" fill="white"/>
<path d="M47.6727 24.1822C50.2855 25.2646 51.5258 28.2596 50.4439 30.8725C49.3616 33.4848 46.3665 34.7256 43.7537 33.6432C41.1414 32.5614 39.9006 29.5658 40.983 26.9535C42.0648 24.3407 45.0604 23.1004 47.6727 24.1822Z" fill="white"/>
</svg>
