<svg width="46" height="46" viewBox="0 0 46 46" fill="none" xmlns="http://www.w3.org/2000/svg">
<path d="M45.9989 31.1305C45.9989 25.4223 42.7242 20.3278 37.8196 17.8497C37.6673 28.7946 28.7938 37.6681 17.849 37.8204C20.3271 42.7249 25.4215 45.9997 31.1298 45.9997C33.8061 45.9997 36.4088 45.2869 38.6956 43.9326L45.934 45.9348L43.9318 38.6964C45.2861 36.4095 45.9989 33.8069 45.9989 31.1305Z" fill="white"/>
<path d="M35.129 17.5645C35.129 7.87924 27.2497 0 17.5645 0C7.87924 0 0 7.87924 0 17.5645C0 20.721 0.840181 23.7943 2.43561 26.4924L0.0645753 35.0641L8.6366 32.6934C11.3347 34.2888 14.408 35.129 17.5645 35.129C27.2497 35.129 35.129 27.2497 35.129 17.5645ZM14.8692 13.4766H12.1739C12.1739 10.504 14.5919 8.08595 17.5645 8.08595C20.5371 8.08595 22.9551 10.504 22.9551 13.4766C22.9551 14.9853 22.3164 16.4355 21.2021 17.4546L18.9121 19.5505V21.6524H16.2168V18.3636L19.3824 15.4661C19.9482 14.9485 20.2598 14.242 20.2598 13.4766C20.2598 11.9903 19.0508 10.7813 17.5645 10.7813C16.0782 10.7813 14.8692 11.9903 14.8692 13.4766ZM16.2168 24.3477H18.9121V27.043H16.2168V24.3477Z" fill="white"/>
</svg>
