<svg width="600" height="370" viewBox="0 0 600 370" fill="none" xmlns="http://www.w3.org/2000/svg">
<mask id="mask0" mask-type="alpha" maskUnits="userSpaceOnUse" x="0" y="0" width="600" height="370">
<rect width="600" height="370" fill="black"/>
</mask>
<g mask="url(#mask0)">
<path d="M670.994 208.608C670.953 214.494 670.769 220.426 669.961 226.267C666.785 249.246 668.492 278.172 668.492 278.172C668.492 278.172 630.295 279.777 576.352 282.002C447.747 287.31 229.657 296.151 226.481 295.199C223.925 294.436 188.629 285.77 158.618 278.435C135.798 272.861 116.039 268.046 116.039 268.046C116.039 268.046 118.107 207.553 134.009 154.461C149.908 101.366 185.573 91.822 220.852 96.5918C243.848 99.7032 276.592 90.1103 308.27 82.6108C325.206 78.6004 341.834 75.1893 356.506 74.6351C398.617 73.0466 471.793 82.2701 501.042 84.1829C526.126 85.8208 551.264 86.9783 576.348 89.0184C581.423 89.4289 586.506 89.8763 591.577 90.373C606.142 91.7974 620.998 94.9006 633.86 102.154C647.613 109.912 655.966 123.265 660.93 138.034C668.484 160.52 671.159 184.956 670.994 208.608Z" fill="#E0FF24"/>
<path d="M670.995 208.608C670.954 214.494 670.769 220.426 669.961 226.267C666.785 249.246 668.492 278.172 668.492 278.172C668.492 278.172 667.224 278.226 664.824 278.324C664.25 278.349 663.618 278.378 662.916 278.406C655.146 278.731 639.658 279.379 618.98 280.233C618.348 280.262 617.712 280.286 617.072 280.315C605.027 280.816 591.295 281.382 576.356 281.998V89.0184C581.432 89.4289 586.515 89.8763 591.586 90.373C600.136 91.2063 608.789 92.6266 617.076 95.1223C617.716 95.307 618.348 95.5081 618.984 95.7134C624.137 97.3799 629.142 99.4857 633.869 102.154C642.833 107.207 649.5 114.641 654.432 123.294C654.842 124.008 655.24 124.734 655.626 125.469C657.726 129.463 659.482 133.683 660.939 138.03C661.644 140.123 662.305 142.241 662.925 144.364C663.61 146.712 664.246 149.076 664.832 151.457C667.491 162.191 669.181 173.237 670.109 184.308C670.166 184.964 670.219 185.625 670.264 186.282C670.822 193.749 671.044 201.215 670.995 208.608Z" fill="#222B89"/>
<path d="M655.612 125.469L618.975 118.261L617.067 117.888L576.351 109.875V107.93L617.067 115.942L618.975 116.32L654.422 123.294C654.829 124.012 655.227 124.735 655.612 125.469Z" fill="black"/>
<path d="M670.251 186.29L664.819 185.223L662.911 184.846L618.975 176.201L617.067 175.827L576.351 167.815V165.869L617.067 173.882L618.975 174.259L662.911 182.904L664.819 183.278L670.095 184.32C670.152 184.973 670.206 185.63 670.251 186.29Z" fill="black"/>
<path d="M308.27 82.6147V216.231L260.333 236.159L258.425 236.952L211.223 256.569L209.315 257.361L158.614 278.439C135.798 272.861 116.039 268.046 116.039 268.046C116.039 268.046 116.95 241.356 122.222 207.873C122.333 207.196 122.436 206.514 122.55 205.829C125.193 189.451 128.881 171.574 134.009 154.461C134.567 152.602 135.15 150.796 135.749 149.043C135.995 148.316 136.254 147.606 136.508 146.9C141.161 134.142 147.085 124.258 153.941 116.726C154.564 116.028 155.204 115.359 155.848 114.706C170.795 99.5512 189.778 94.8553 209.32 95.5819C209.955 95.6065 210.591 95.6352 211.227 95.6722C214.432 95.8446 217.644 96.1606 220.857 96.5916C231.614 98.0489 244.509 96.7189 258.43 94.1288C259.065 94.0097 259.697 93.8907 260.337 93.7675C275.628 90.8162 292.089 86.4404 308.27 82.6147Z" fill="#222B89"/>
<path d="M308.27 106.349V108.315L260.333 119.632L258.426 120.079L211.223 131.224L209.316 131.675L155.848 144.302L153.941 144.753L135.749 149.043C135.995 148.316 136.254 147.606 136.508 146.9L153.941 142.787L155.848 142.34L209.32 129.713L211.227 129.262L258.43 118.121L260.337 117.67L308.27 106.349Z" fill="black"/>
<path d="M308.269 161.985V163.947L260.333 175.264L258.425 175.716L211.223 186.861L209.315 187.308L155.848 199.934L153.94 200.382L122.222 207.869C122.333 207.192 122.435 206.51 122.55 205.825L153.94 198.42L155.848 197.968L209.319 185.342L211.227 184.894L258.429 173.75L260.337 173.302L308.269 161.985Z" fill="black"/>
<path d="M260.337 93.7673V261.589H258.429V94.1286C259.061 94.0095 259.697 93.8905 260.337 93.7673Z" fill="black"/>
<path d="M211.227 95.6721V266.252H209.32V95.5818C209.951 95.6064 210.591 95.6351 211.227 95.6721Z" fill="black"/>
<path d="M155.848 114.706V276.202H153.941V116.726C154.564 116.028 155.204 115.363 155.848 114.706Z" fill="black"/>
<path d="M668.487 278.172L342.802 203.317C342.802 203.317 116.051 268.042 116.039 268.046C115.617 268.165 119.609 280.594 119.863 281.321C121.578 286.173 123.047 291.755 126.866 295.45C131.654 300.076 138.576 303.889 145.124 305.223C150.26 306.27 155.348 307.563 160.378 309.036C170.323 311.951 180.042 315.571 189.663 319.401C205.68 325.776 221.861 332.282 239.027 334.761C259.168 337.676 279.522 334.458 299.457 331.519C318.74 328.674 338.15 326.014 357.585 324.495C367.579 323.715 377.61 323.338 387.633 323.625C396.992 323.896 406.215 325.431 415.343 327.442C434.142 331.58 453.782 335.48 473.209 337.672C493.189 339.925 513.235 339.519 533.289 340.426C552.359 341.288 571.552 345.339 590.642 342.593C599.43 341.329 608.214 338.55 616.6 335.714C623.058 333.526 626.984 327.873 632.084 323.58C638.234 318.404 644.851 313.81 651.289 309.008C651.453 308.889 651.613 308.766 651.777 308.647C655.933 305.535 659.74 302.518 662.76 299.53C674.317 288.098 668.487 278.172 668.487 278.172Z" fill="#272E34"/>
<path d="M343.598 198.358C343.336 198.358 343.122 198.145 343.122 197.882V78.4567C343.122 78.194 343.336 77.9806 343.598 77.9806C343.861 77.9806 344.074 78.194 344.074 78.4567V197.882C344.074 198.145 343.861 198.358 343.598 198.358Z" fill="#232C44"/>
<path d="M352.547 324.93L175.287 259.13L175.119 259.578L351.431 325.025C351.808 324.992 352.177 324.963 352.547 324.93Z" fill="black"/>
<path d="M496.327 339.281L220.934 241.738L220.778 242.185L494.752 339.223C495.273 339.244 495.798 339.26 496.327 339.281Z" fill="black"/>
<path d="M608.784 338.197L271.099 227.975L270.951 228.426L607.955 338.427C608.23 338.353 608.509 338.275 608.784 338.197Z" fill="black"/>
<path d="M651.781 308.646C651.617 308.766 651.457 308.889 651.293 309.008L317.911 216.957L318.034 216.493L651.781 308.646Z" fill="black"/>
<path d="M266.935 335.512L126.153 273.263L125.96 273.702L265.905 335.582C266.25 335.562 266.594 335.537 266.935 335.512Z" fill="black"/>
</g>
</svg>
